<?xml version="1.0" encoding="utf-8"?>
<svg version="1.1" id="Layer_1" x="0px" y="0px" width="100%" viewBox="0 0 200 200" enable-background="new 0 0 200 200" xmlns="http://www.w3.org/2000/svg">
  <path fill="#E6E8F1" opacity="1.000000" stroke="none" d=" M152.932816,83.980652 C153.747192,87.020325 154.794891,90.021278 155.307739,93.110992 C155.783432,95.976906 155.850677,98.940819 155.793472,101.855606 C155.745728,104.288483 155.257446,106.712700 154.569458,109.522949 C149.604538,106.400307 152.334671,102.984322 154.777298,99.303749 C153.217667,99.178040 152.109436,99.088715 150.960968,98.649490 C149.891495,95.841980 148.902435,95.356453 145.750366,96.150902 C141.203262,97.296944 136.152298,96.443916 131.304489,96.443916 C131.082581,94.577370 130.907516,93.104950 130.920364,91.388550 C131.415085,90.409691 131.721909,89.674820 132.064667,88.751404 C132.100586,88.562866 132.095230,88.179031 132.092865,88.124222 C132.090485,88.069405 132.196762,88.096703 132.504639,88.055206 C133.218582,87.368896 133.624664,86.724091 134.206406,85.790482 C135.589249,83.335281 136.796417,81.168884 138.233978,78.751495 C141.306595,72.997650 144.148834,67.494804 147.336105,61.954712 C148.391953,61.321098 149.102753,60.724731 149.813568,60.128361 C151.438263,60.951248 153.062943,61.774139 154.687637,62.597031 C153.569717,64.190804 152.451782,65.784569 150.805603,67.757027 C147.887314,71.679916 149.097290,74.508110 152.038788,76.991913 C152.348709,78.090660 152.658630,79.189407 152.591339,80.655945 C151.537766,81.551918 150.861404,82.080109 150.185028,82.608292 C151.100952,83.065742 152.016891,83.523193 152.932816,83.980652 z"/>
  <path fill="#F4F3FA" opacity="1.000000" stroke="none" d=" M101.993958,86.999329 C101.994469,85.933067 101.994965,84.866798 101.975563,83.102692 C101.636765,81.936707 101.317871,81.468559 100.998970,81.000412 C100.998756,78.629494 100.998543,76.258583 101.275635,73.249428 C102.701149,70.740692 103.849358,68.870193 104.997574,66.999695 C105.435272,66.033859 105.872963,65.068024 106.977432,64.223709 C108.719307,68.702011 110.934555,71.481079 115.984314,70.538422 C116.570274,70.429031 117.251396,70.829445 117.997543,71.350342 C117.456360,73.492195 116.806023,75.277222 115.827881,77.184425 C115.412277,78.229935 115.324486,79.153259 114.875725,80.140488 C114.400963,81.157280 114.287163,82.110168 113.909241,83.224976 C113.448006,83.971733 113.250908,84.556572 112.803772,85.132004 C112.443687,85.400681 112.333641,85.678772 112.058578,86.303070 C111.191399,89.080986 110.489243,91.512680 109.443359,93.976059 C107.464714,94.356987 105.817375,95.051514 104.197113,94.993217 C98.462433,94.786888 92.737015,94.323174 86.936447,93.604729 C84.824989,91.096977 83.520195,91.683105 82.461533,94.379837 C81.768028,94.258202 81.386108,94.106178 80.995277,93.569572 C80.104736,92.427818 79.294579,91.134026 78.329216,91.005447 C73.917000,90.417740 72.916092,87.019180 73.175354,83.810867 C73.658264,77.835007 75.011223,71.929451 76.296341,66.144257 C77.393661,67.528923 78.196678,68.763969 79.000000,70.459534 C80.567398,76.956497 75.662262,83.606392 80.365433,90.677658 C82.012169,87.642586 82.999664,85.822548 83.987160,84.002510 C86.111671,90.897667 91.650490,90.333832 97.906570,89.994293 C99.816772,88.993538 100.905365,87.996429 101.993958,86.999329 z"/>
  <path fill="#E6F2F8" opacity="1.000000" stroke="none" d=" M140.998413,164.174759 C141.423370,168.784012 138.267822,171.589050 135.084488,174.724335 C132.982086,174.852554 131.494904,174.946548 129.765961,174.756927 C123.462906,171.742981 118.439484,175.771347 112.551361,177.009552 C110.071930,176.996811 108.029221,176.987137 105.976837,176.579880 C105.257469,175.465546 104.591560,174.179962 103.831169,174.121429 C97.365936,173.623611 90.885742,173.217575 84.404556,173.108292 C82.948883,173.083740 81.471779,174.330444 79.676514,174.851746 C78.063873,174.075302 76.103546,173.763641 75.614296,172.745239 C73.728615,168.820145 70.439049,168.816223 66.953300,168.942688 C66.820763,167.826935 66.688225,166.711166 66.566154,165.683487 C65.999268,163.921234 65.473839,162.287857 65.333603,160.350098 C67.484756,160.677643 69.250725,161.309555 71.191422,162.275681 C82.240242,166.448944 93.324318,169.175201 105.435593,168.967636 C110.665359,168.987396 115.495857,169.500900 120.165108,168.852737 C125.177315,168.156982 130.037979,166.369537 135.332794,165.017242 C137.132187,164.646698 138.563599,164.317413 140.245010,163.992950 C140.661743,163.999710 140.828445,164.001617 140.997452,164.046295 C140.999771,164.089081 140.998413,164.174759 140.998413,164.174759 z"/>
  <path fill="#DEEDEF" opacity="1.000000" stroke="none" d=" M80.004532,174.991913 C81.471779,174.330444 82.948883,173.083740 84.404556,173.108292 C90.885742,173.217575 97.365936,173.623611 103.831169,174.121429 C104.591560,174.179962 105.257469,175.465546 105.512634,176.584946 C97.973701,176.987595 90.889297,176.987595 83.573456,176.987595 C84.074852,177.541550 84.534042,178.525208 85.070724,178.569473 C91.805031,179.124954 98.546394,179.635086 105.295670,179.945236 C107.386299,180.041321 109.542175,179.649002 111.590546,179.157059 C112.193298,179.012314 112.529640,177.758286 112.988075,177.012619 C118.439484,175.771347 123.462906,171.742981 129.689972,175.119080 C125.631287,177.124222 121.406830,178.483597 117.532852,179.730179 C119.995750,180.981201 119.995750,180.981201 118.960777,185.038605 C118.198647,185.652420 117.279045,186.920654 116.698257,186.780884 C109.233917,184.984619 101.743752,190.921570 94.157288,186.401382 C91.647949,184.906265 88.075752,185.286087 85.075920,184.485062 C83.548828,184.077316 82.213341,182.952011 80.557785,182.019592 C77.550186,184.989410 75.253899,184.792603 74.177307,180.398727 C76.447624,179.900894 78.481728,179.900894 80.644684,179.900894 C80.377953,177.855484 80.191246,176.423706 80.004532,174.991913 z"/>
  <path fill="#EEEEF4" opacity="1.000000" stroke="none" d=" M132.180725,52.987289 C132.778961,53.490734 133.377197,53.994183 134.244507,55.077831 C137.334015,56.422699 140.154419,57.187366 142.974838,57.952038 C142.974838,57.952038 142.992371,57.999695 142.953156,58.335487 C140.244232,63.771202 137.574509,68.871132 134.624100,74.157654 C131.612518,79.565552 128.881622,84.786850 125.853851,90.148346 C124.484222,91.900673 123.411484,93.512817 121.987762,95.109116 C121.088158,95.702454 120.539520,96.311646 119.639420,96.891548 C118.048943,96.203835 116.809921,95.545395 115.696548,94.530930 C116.284393,92.486145 116.746597,90.797379 117.474579,88.883965 C117.641335,87.772392 117.542297,86.885468 117.785362,85.880096 C118.699623,85.154648 119.271782,84.547646 119.992264,83.607994 C122.942299,75.482262 125.878555,67.732567 128.419327,59.855312 C128.866440,58.469090 127.658195,56.548935 127.709518,54.900772 C129.529984,54.279888 130.855347,53.633587 132.180725,52.987289 z"/>
  <path fill="#DFEAEC" opacity="1.000000" stroke="none" d=" M144.972748,146.000381 C144.976334,147.071198 144.979919,148.141998 144.977844,149.854767 C144.972183,150.496719 144.955978,150.977356 144.559647,150.989685 C140.087448,151.654968 136.011597,152.307907 132.081085,152.674896 C132.236038,150.583237 132.245651,148.777542 132.259491,146.618683 C131.037842,144.831299 129.811951,143.397064 128.563721,141.566620 C128.431213,140.129608 128.321014,139.088837 128.554169,137.930511 C132.007401,136.253815 135.117310,134.694702 138.571655,133.111389 C139.608582,133.072647 140.301056,133.058090 141.360474,133.007812 C143.148270,132.634018 144.569168,132.295959 146.033844,132.340393 C146.729797,135.511276 147.381943,138.299637 148.034088,141.087997 C148.038605,141.504700 148.043121,141.921417 147.796448,142.664337 C147.368378,142.995041 147.191467,142.999527 147.009689,142.753326 C147.002808,142.335510 147.000793,142.168365 146.964172,141.658020 C146.083984,138.795273 144.608643,138.619507 143.074875,140.565872 C141.793747,142.191635 140.836533,144.120438 144.094238,145.224915 C144.396255,145.713806 144.653397,145.900024 144.972748,146.000381 M145.588257,136.518082 C145.588257,136.518082 145.476181,136.585297 145.588257,136.518082 z"/>
  <path fill="#628640" opacity="1.000000" stroke="none" d=" M71.002594,39.040001 C73.407913,37.395565 75.813232,35.751125 78.851044,34.036560 C79.983315,33.702370 80.483101,33.438305 80.982887,33.174248 C81.328445,33.063007 81.674011,32.951767 82.612167,32.945633 C84.044556,33.678967 84.884338,34.307198 85.066032,34.443119 C83.253716,35.801380 81.532593,37.091301 79.811462,38.381218 C80.027367,38.943302 80.243263,39.505383 80.459167,40.067467 C85.059746,40.067467 89.660332,40.067467 94.220306,40.067467 C94.166527,40.983021 94.078995,42.473141 93.991470,43.963261 C93.895081,44.265186 93.758095,44.547401 93.102142,45.065269 C92.417160,45.881317 92.210526,46.442013 92.003899,47.002705 C92.003899,47.002705 92.000000,47.000000 91.605530,47.034271 C85.787971,47.745922 80.364899,48.423298 74.595467,49.089539 C73.786758,49.065800 73.324402,49.053196 72.900482,48.778076 C72.953178,48.339699 72.967445,48.163834 73.154984,47.905716 C73.201324,47.565491 73.074402,47.307518 72.729034,46.939552 C72.241402,46.624130 72.060135,46.358673 71.979889,45.633873 C71.662872,43.169708 71.332733,41.104855 71.002594,39.040001 z"/>
  <path fill="#EFF1F1" opacity="1.000000" stroke="none" d=" M78.999695,69.999023 C78.196678,68.763969 77.393661,67.528923 76.263611,65.840485 C75.294861,64.639542 74.653145,63.891987 74.429520,63.073776 C76.272583,62.582302 78.913452,62.191055 78.924522,61.735844 C78.994606,58.854370 78.482513,55.958740 78.544044,52.970802 C82.624527,51.712032 86.323471,50.550240 90.022415,49.388451 C91.145981,50.155979 92.269554,50.923508 93.823471,52.076347 C92.856361,52.659492 91.441689,52.777081 90.065170,53.072437 C87.476936,53.627789 87.028709,55.784512 88.988152,58.016006 C88.655418,61.057453 88.322685,64.098900 87.731766,67.673950 C86.976418,68.471603 86.479256,68.735657 85.641907,68.948387 C84.158875,67.700958 83.016029,66.504845 82.011971,65.453995 C80.879547,67.162643 79.939621,68.580833 78.999695,69.999023 z"/>
  <path fill="#E6F1F2" opacity="1.000000" stroke="none" d=" M131.935730,152.960846 C136.011597,152.307907 140.087448,151.654968 144.594482,151.290863 C145.351364,152.053528 145.677094,152.527344 146.002838,153.001160 C145.731750,153.508362 145.460663,154.015564 144.838470,154.915695 C144.324280,155.628143 144.161194,155.947662 143.998108,156.267166 C144.026047,156.612183 144.053986,156.957184 143.711594,157.607574 C141.886612,158.598862 140.431946,159.284760 138.614899,159.940308 C137.019394,159.777969 135.174500,159.060257 134.650681,159.607391 C130.745697,163.686081 125.783920,162.887802 120.820656,162.738739 C120.099770,161.651321 119.552734,160.825546 118.981400,159.668213 C118.748482,158.443069 118.539848,157.549515 118.637764,157.968872 C121.218681,157.611008 123.613007,157.279022 126.306679,156.811111 C128.382599,155.437073 130.159164,154.198959 131.935730,152.960846 z"/>
  <path fill="#72924B" opacity="1.000000" stroke="none" d=" M94.323593,43.836990 C94.078995,42.473141 94.166527,40.983021 94.220306,40.067467 C89.660332,40.067467 85.059746,40.067467 80.459167,40.067467 C80.243263,39.505383 80.027367,38.943302 79.811462,38.381218 C81.532593,37.091301 83.253716,35.801380 85.066032,34.443119 C84.884338,34.307198 84.044556,33.678967 82.881058,32.901283 C87.663101,31.371059 92.768852,29.990294 99.340759,28.213026 C97.529556,34.204334 96.092636,38.957527 94.323593,43.836990 z"/>
  <path fill="#FDFDFD" opacity="1.000000" stroke="none" d=" M120.922806,61.905891 C119.210609,60.942188 117.561317,59.834526 115.770042,59.051804 C113.608551,58.107307 111.326630,57.438435 109.096840,56.650257 C109.136841,56.141357 109.176842,55.632454 109.216843,55.123550 C110.556633,54.820778 111.896423,54.518009 112.927711,54.284954 C112.068001,46.750816 118.603569,51.679390 121.353462,49.076080 C121.649742,45.354286 123.811531,42.919796 129.002228,44.490227 C127.908951,47.930389 126.432159,50.965466 124.573700,53.998985 C122.128609,53.348885 120.065193,52.700333 118.001770,52.051777 C117.833145,52.555656 117.664520,53.059536 117.495888,53.563416 C119.637779,54.375084 121.779671,55.186752 124.002808,56.355095 C123.100159,58.512833 122.116280,60.313900 121.078819,62.063885 C121.025238,62.012802 120.922806,61.905891 120.922806,61.905891 z"/>
  <path fill="#2C3037" opacity="1.000000" stroke="none" d=" M124.955368,54.000542 C126.432159,50.965466 127.908951,47.930389 129.460556,44.538692 C130.732956,41.479401 131.930542,38.776726 133.318665,35.644085 C134.927246,35.972557 136.566299,36.307255 138.857681,36.775154 C136.460190,42.387245 134.344070,47.340721 132.204330,52.640747 C130.855347,53.633587 129.529984,54.279888 127.532898,54.943802 C126.334694,54.991714 125.808197,55.022011 125.224464,54.781818 C125.096603,54.341061 125.025986,54.170799 124.955368,54.000542 z"/>
  <path fill="#E9EBF1" opacity="1.000000" stroke="none" d=" M79.000000,70.459534 C79.939621,68.580833 80.879547,67.162643 82.011971,65.453995 C83.016029,66.504845 84.158875,67.700958 85.646301,69.281754 C85.993500,70.110954 85.996117,70.555481 85.998741,71.000000 C85.994102,72.059181 85.989456,73.118370 85.663193,74.612442 C84.896057,76.031265 84.450531,77.015198 84.005005,77.999130 C84.002899,79.714363 84.000793,81.429588 83.992920,83.573669 C82.999664,85.822548 82.012169,87.642586 80.365433,90.677658 C75.662262,83.606392 80.567398,76.956497 79.000000,70.459534 z"/>
  <path fill="#6D894A" opacity="1.000000" stroke="none" d=" M58.993904,72.799438 C54.964680,73.676964 50.901478,74.425972 46.918610,75.478828 C44.413197,76.141129 43.086151,76.264503 44.019066,72.968918 C44.916706,69.797935 45.433334,66.519081 46.846600,63.118683 C48.363754,62.957985 49.151680,62.966228 50.154762,63.235527 C52.549736,64.597038 55.719372,65.092575 53.508209,68.872864 C53.411274,69.038582 55.105396,70.251930 56.307762,70.987167 C57.431496,71.597847 58.212700,72.198639 58.993904,72.799438 z"/>
  <path fill="#A1BCA3" opacity="1.000000" stroke="none" d=" M61.900608,142.063705 C58.934555,137.309174 59.249477,131.941742 59.367603,126.354324 C61.119568,126.335403 62.529900,126.637054 64.323524,126.964661 C65.496246,128.024429 66.285675,129.058243 66.864700,130.136902 C66.654289,130.181763 66.225754,130.220337 65.854454,130.157013 C61.217312,131.985382 65.216057,134.178741 64.906197,136.641724 C65.923363,135.815933 66.525414,135.327164 67.430275,134.865250 C68.136215,134.933533 68.539352,134.974945 68.962875,135.316742 C69.284569,136.105789 69.585869,136.594437 69.917221,137.464157 C69.930511,138.858856 69.913734,139.872482 69.597794,140.898712 C68.842888,141.603500 68.387146,142.295685 67.695961,143.169937 C67.358536,143.921432 67.256554,144.490845 67.136055,145.283264 C67.117531,145.506256 67.052383,145.949005 66.733047,145.837875 C64.909340,144.505737 63.404976,143.284714 61.900608,142.063705 z"/>
  <path fill="#2E3239" opacity="1.000000" stroke="none" d=" M145.056442,58.100914 C147.628693,52.880272 150.057968,47.577515 152.950439,42.540775 C153.320557,41.896320 156.102921,42.637177 158.637650,42.788052 C155.273682,48.668148 152.421509,53.653625 148.988708,58.566765 C147.260590,58.319229 146.113113,58.144024 144.981812,58.006340 C144.997955,58.043861 145.056442,58.100914 145.056442,58.100914 z"/>
  <path fill="#2F3340" opacity="1.000000" stroke="none" d=" M134.904785,73.971054 C137.574509,68.871132 140.244232,63.771202 142.940216,58.311485 C143.433014,57.964275 143.899521,57.976856 144.711243,58.045174 C145.056442,58.100914 144.997955,58.043861 144.979599,58.339790 C145.637848,59.754467 146.314453,60.873219 146.991074,61.991966 C144.148834,67.494804 141.306595,72.997650 137.958282,78.539940 C136.603058,77.043274 135.753922,75.507164 134.904785,73.971054 z"/>
  <path fill="#FDFDFD" opacity="1.000000" stroke="none" d=" M117.888405,70.993500 C117.251396,70.829445 116.570274,70.429031 115.984314,70.538422 C110.934555,71.481079 108.719307,68.702011 107.321609,64.168159 C106.812668,60.110386 109.675751,60.972775 111.796524,61.072666 C114.556541,61.202671 117.301270,61.657040 120.487694,61.938850 C120.922806,61.905891 121.025238,62.012802 121.083748,62.451920 C120.442024,65.265053 119.741783,67.639076 118.760620,70.041023 C118.282600,70.377129 118.085503,70.685310 117.888405,70.993500 z"/>
  <path fill="#A1B3AD" opacity="1.000000" stroke="none" d=" M58.817989,95.827904 C58.869755,92.788071 58.921520,89.748230 59.419205,86.316483 C60.542797,85.943085 61.220474,85.961594 62.207340,86.191681 C63.923836,90.683807 65.029167,95.272766 70.995781,95.046524 C70.929268,95.873756 70.958435,96.453346 70.953308,97.327904 C70.892792,98.016205 70.866562,98.409538 70.645401,98.756821 C70.135750,98.483124 69.821045,98.255455 69.092590,98.019516 C66.755455,99.677551 64.832062,101.343864 62.695351,103.011169 C62.482037,103.012169 62.055408,103.012573 62.038223,102.638306 C60.953350,100.118668 59.885670,97.973282 58.817989,95.827904 z"/>
  <path fill="#BECDD3" opacity="1.000000" stroke="none" d=" M61.776505,142.361008 C63.404976,143.284714 64.909340,144.505737 66.866280,146.128265 C67.622910,147.311768 67.926964,148.093719 67.847916,148.921280 C66.158279,150.023743 64.851761,151.080612 64.226219,151.586624 C67.295990,154.915710 69.647072,157.465393 71.891830,160.265076 C71.529236,160.990540 71.272957,161.466003 71.016685,161.941467 C69.250725,161.309555 67.484756,160.677643 65.363678,160.016632 C64.221298,158.737473 63.083630,157.582260 62.714466,156.218964 C61.727169,152.572952 60.972668,148.853485 60.364079,145.124298 C60.244556,144.391891 61.195282,143.484818 61.776505,142.361008 z"/>
  <path fill="#BAD0B3" opacity="1.000000" stroke="none" d=" M145.990051,131.957886 C144.569168,132.295959 143.148270,132.634018 141.365616,132.631500 C142.667206,129.186905 144.330551,126.082886 145.992340,122.598755 C144.939590,120.403198 143.759827,118.645782 142.901306,116.743393 C142.564117,115.996201 142.945740,114.924614 143.251740,114.161194 C145.674591,114.874184 147.845718,115.426735 150.279785,116.206284 C151.354370,117.624954 152.166000,118.816643 152.977631,120.008324 C152.971710,120.440804 152.965775,120.873276 152.581818,121.702255 C149.642059,123.707115 147.040482,125.291664 147.909851,129.301758 C147.173828,130.362900 146.581940,131.160400 145.990051,131.957886 z"/>
  <path fill="#DCE9ED" opacity="1.000000" stroke="none" d=" M79.676514,174.851761 C80.191246,176.423706 80.377953,177.855484 80.644684,179.900894 C78.481728,179.900894 76.447624,179.900894 74.127319,180.024643 C71.435104,176.530960 69.029106,172.913544 66.788208,169.119400 C70.439049,168.816223 73.728615,168.820145 75.614296,172.745239 C76.103546,173.763641 78.063873,174.075302 79.676514,174.851761 M76.482559,177.589630 C76.482559,177.589630 76.415840,177.478073 76.482559,177.589630 z"/>
  <path fill="#7B9953" opacity="1.000000" stroke="none" d=" M49.939606,62.974472 C49.151680,62.966228 48.363754,62.957985 47.182175,62.929718 C47.840889,57.390705 51.393333,54.136215 56.386135,52.053234 C57.585503,51.552860 58.542755,50.472141 59.830002,49.349579 C60.761711,49.377857 61.474777,49.714870 62.157261,50.414898 C61.382469,52.161278 60.638260,53.544640 59.521263,54.948063 C57.256054,55.519993 55.363628,56.071869 52.741413,56.836563 C56.186661,57.364216 58.575562,57.730083 60.864182,58.282745 C60.588818,58.702183 60.365082,58.869946 59.685631,58.971127 C56.165581,60.304440 53.052593,61.639458 49.939606,62.974472 z"/>
  <path fill="#A5BE97" opacity="1.000000" stroke="none" d=" M62.055408,103.012573 C62.055408,103.012573 62.482037,103.012169 62.728790,103.431892 C63.115921,105.809082 63.256294,107.766548 63.460945,110.620346 C65.731667,108.162010 67.191650,106.581390 68.962906,105.164864 C68.176033,107.711060 67.077164,110.092834 65.980026,112.475403 C65.305664,113.939865 64.633934,115.405540 63.733643,116.954330 C63.506256,117.037994 63.031891,117.136917 62.745338,116.962135 C61.571774,116.258919 60.684757,115.730484 59.748329,115.172615 C59.198528,116.620735 58.770588,117.747887 58.342648,118.875038 C58.158733,116.514801 57.974819,114.154556 58.379112,111.412636 C59.652020,109.839066 60.498161,108.708252 60.978264,107.438980 C61.511448,106.029373 61.710743,104.493484 62.055408,103.012573 z"/>
  <path fill="#CDDFDD" opacity="1.000000" stroke="none" d=" M119.178040,185.264038 C119.995750,180.981201 119.995750,180.981201 117.532852,179.730179 C121.406830,178.483597 125.631287,177.124222 129.931732,175.402710 C131.494904,174.946548 132.982086,174.852554 134.785889,174.884155 C132.098541,181.847992 125.324562,183.035690 119.178040,185.264038 z"/>
  <path fill="#FDFDFD" opacity="1.000000" stroke="none" d=" M89.174294,57.680428 C87.028709,55.784512 87.476936,53.627789 90.065170,53.072437 C91.441689,52.777081 92.856361,52.659492 94.123596,52.189888 C94.248840,50.397881 94.504288,48.877644 94.876053,46.665215 C99.022621,49.200077 102.440804,51.289669 105.858994,53.379257 C105.751663,53.866306 105.644333,54.353355 105.537010,54.840401 C103.311127,54.360001 101.085251,53.879601 99.417976,53.519764 C96.010719,54.815609 92.685577,56.080227 89.174294,57.680428 z"/>
  <path fill="#6A854F" opacity="1.000000" stroke="none" d=" M62.187843,50.051880 C61.474777,49.714870 60.761711,49.377857 59.753441,49.012512 C58.785801,46.843277 58.113361,44.702377 57.108147,41.501972 C61.419327,42.138374 64.784470,42.635124 68.470306,43.302307 C68.192451,44.313698 67.593903,45.154659 67.013374,46.323872 C67.399315,47.445034 67.767235,48.237946 68.000076,49.244606 C67.578896,49.629089 67.292801,49.799816 66.797020,49.715645 C65.120842,49.657791 63.654343,49.854836 62.187843,50.051880 z"/>
  <path fill="#5F6771" opacity="1.000000" stroke="none" d=" M61.898155,85.980103 C61.220474,85.961594 60.542797,85.943085 59.526867,85.904488 C59.486572,81.848145 59.784531,77.811897 60.269829,73.063934 C60.971306,71.241837 61.485447,70.131447 62.352440,69.020752 C63.410297,69.010429 64.115295,69.000427 64.794708,69.404953 C63.812134,75.206352 62.855145,80.593231 61.898155,85.980103 z"/>
  <path fill="#D9E5E1" opacity="1.000000" stroke="none" d=" M151.001221,98.999390 C152.109436,99.088715 153.217667,99.178040 154.777298,99.303749 C152.334671,102.984322 149.604538,106.400307 154.547012,109.969246 C154.615814,112.097809 154.312271,114.162270 153.645660,116.560379 C152.524551,115.590622 151.766525,114.287239 151.000793,112.632568 C150.333542,111.519684 149.673965,110.758080 149.007294,109.749237 C149.000183,109.501999 148.987183,109.007507 148.991852,108.633453 C148.993210,107.511490 148.989883,106.763573 148.952515,105.649506 C146.373505,102.127579 150.644745,101.199005 150.984528,98.985458 C150.992096,98.987556 151.001221,98.999390 151.001221,98.999390 z"/>
  <path fill="#6C8F4E" opacity="1.000000" stroke="none" d=" M61.999588,69.021065 C61.485447,70.131447 60.971306,71.241837 60.251106,72.604279 C59.868641,72.869179 59.692234,72.882027 59.254868,72.847153 C58.212700,72.198639 57.431496,71.597847 56.466179,70.688828 C57.552280,66.578018 58.822487,62.775425 60.092697,58.972832 C60.365082,58.869946 60.588818,58.702183 61.186203,58.255630 C62.074692,59.032932 62.540882,60.024151 63.004581,61.383442 C64.322510,64.402878 58.736294,66.101776 61.999588,69.021065 z"/>
  <path fill="#C4D5C7" opacity="1.000000" stroke="none" d=" M62.038223,102.638306 C61.710743,104.493484 61.511448,106.029373 60.978264,107.438980 C60.498161,108.708252 59.652020,109.839066 58.580307,111.074295 C57.783848,107.766396 57.193943,104.423286 57.042728,101.060440 C56.969452,99.430885 57.718781,97.764336 58.456833,95.971222 C59.885670,97.973282 60.953350,100.118668 62.038223,102.638306 z"/>
  <path fill="#4B6434" opacity="1.000000" stroke="none" d=" M90.266708,49.192383 C86.323471,50.550240 82.624527,51.712032 78.192352,52.951576 C76.990417,53.023289 76.521706,53.017250 75.773315,52.792343 C75.309708,51.415871 75.125763,50.258270 74.941818,49.100674 C80.364899,48.423298 85.787971,47.745922 91.606781,47.036175 C91.505333,47.667973 91.008163,48.332142 90.266708,49.192383 z"/>
  <path fill="#DDE5E8" opacity="1.000000" stroke="none" d=" M146.033844,132.340393 C146.581940,131.160400 147.173828,130.362900 148.242126,129.259720 C149.773026,128.616058 150.827545,128.278107 151.882065,127.940155 C150.845047,132.260330 149.808044,136.580490 148.402557,140.994324 C147.381943,138.299637 146.729797,135.511276 146.033844,132.340393 z"/>
  <path fill="#7B976D" opacity="1.000000" stroke="none" d=" M58.172806,119.270126 C58.770588,117.747887 59.198528,116.620735 59.748329,115.172615 C60.684757,115.730484 61.571774,116.258919 62.513496,117.221268 C59.178795,120.801437 61.318390,122.856026 63.976982,125.163078 C63.962460,125.992027 63.951344,126.465363 63.940228,126.938698 C62.529900,126.637054 61.119568,126.335403 59.403252,125.994064 C58.732494,123.857979 58.367729,121.761604 58.172806,119.270126 z"/>
  <path fill="#C6D9D4" opacity="1.000000" stroke="none" d=" M138.977280,159.970673 C140.431946,159.284760 141.886612,158.598862 143.704559,157.867279 C143.255356,159.818695 142.442871,161.815796 141.314392,163.993835 C140.998413,164.174759 140.999771,164.089081 140.912170,163.874542 C140.548050,163.769379 140.271530,163.878754 139.994995,163.988129 C138.563599,164.317413 137.132187,164.646698 135.384048,164.683029 C136.370621,162.916931 137.673950,161.443802 138.977280,159.970673 z"/>
  <path fill="#CEDCCE" opacity="1.000000" stroke="none" d=" M151.915802,127.558716 C150.827545,128.278107 149.773026,128.616058 148.386246,128.996063 C147.040482,125.291664 149.642059,123.707115 152.548798,122.025253 C152.579025,123.693596 152.264282,125.435440 151.915802,127.558716 z"/>
  <path fill="#517438" opacity="1.000000" stroke="none" d=" M66.995354,45.995621 C67.593903,45.154659 68.192451,44.313698 68.856750,43.149410 C69.391029,41.598701 69.859558,40.371326 70.665344,39.091976 C71.332733,41.104855 71.662872,43.169708 71.650955,45.655224 C69.871056,46.049133 68.433205,46.022377 66.995354,45.995621 z"/>
  <path fill="#E1E1EC" opacity="1.000000" stroke="none" d=" M152.030945,76.562401 C149.097290,74.508110 147.887314,71.679916 150.650482,68.062370 C151.356766,70.703651 151.689926,73.418266 152.030945,76.562401 z"/>
  <path fill="#FDFDFD" opacity="1.000000" stroke="none" d=" M104.625389,67.004929 C103.849358,68.870193 102.701149,70.740692 101.275482,72.805191 C99.262047,69.469551 100.851974,67.747612 104.625389,67.004929 z"/>
  <path fill="#CEDCCE" opacity="1.000000" stroke="none" d=" M151.008484,112.983849 C151.766525,114.287239 152.524551,115.590622 153.619171,116.958405 C153.809662,117.886703 153.663559,118.750618 153.247543,119.811432 C152.166000,118.816643 151.354370,117.624954 150.274414,115.833740 C150.007324,114.487953 150.008560,113.741684 150.259476,112.994415 C150.509171,112.993401 151.008484,112.983849 151.008484,112.983849 z"/>
  <path fill="#B0BFC0" opacity="1.000000" stroke="none" d=" M142.879120,57.597744 C140.154419,57.187366 137.334015,56.422699 134.288788,55.396393 C136.970459,55.837654 139.876923,56.540554 142.879120,57.597744 z"/>
  <path fill="#B0BFC0" opacity="1.000000" stroke="none" d=" M147.336105,61.954720 C146.314453,60.873219 145.637848,59.754467 144.963440,58.302269 C146.113113,58.144024 147.260590,58.319229 148.690491,58.724606 C149.071548,59.273392 149.219330,59.567265 149.614929,59.982376 C149.102753,60.724731 148.391953,61.321098 147.336105,61.954720 z"/>
  <path fill="#F4F3FA" opacity="1.000000" stroke="none" d=" M146.998779,142.001221 C147.000793,142.168365 147.002808,142.335510 147.005188,143.126755 C147.007263,144.497757 147.008957,145.244629 147.010651,145.991516 C146.558029,145.994400 146.105392,145.997284 145.312759,146.000275 C144.653397,145.900024 144.396255,145.713806 144.133301,144.884125 C145.043121,143.551422 146.020950,142.776321 146.998779,142.001221 z"/>
  <path fill="#FDFDFD" opacity="1.000000" stroke="none" d=" M101.648323,87.033096 C100.905365,87.996429 99.816772,88.993538 98.363892,89.993187 C99.100639,89.019440 100.201668,88.043152 101.648323,87.033096 z"/>
  <path fill="#E1E1EC" opacity="1.000000" stroke="none" d=" M152.949707,83.610565 C152.016891,83.523193 151.100952,83.065742 150.185028,82.608292 C150.861404,82.080109 151.537766,81.551918 152.575623,81.021034 C152.946960,81.759048 152.956787,82.499771 152.949707,83.610565 z"/>
  <path fill="#FDFDFD" opacity="1.000000" stroke="none" d=" M84.350311,77.945206 C84.450531,77.015198 84.896057,76.031265 85.663956,75.009628 C85.556091,75.945045 85.125847,76.918159 84.350311,77.945206 z"/>
  <path fill="#F4F3FA" opacity="1.000000" stroke="none" d=" M146.258240,152.801514 C145.677094,152.527344 145.351364,152.053528 144.990814,151.278534 C144.955978,150.977356 144.972183,150.496719 144.975449,150.256470 C145.490356,150.878098 146.001999,151.739975 146.258240,152.801514 z"/>
  <path fill="#DDE5E8" opacity="1.000000" stroke="none" d=" M147.334930,145.952759 C147.008957,145.244629 147.007263,144.497757 147.010071,143.377441 C147.191467,142.999527 147.368378,142.995041 147.811218,142.976532 C147.937836,143.946350 147.798523,144.930176 147.334930,145.952759 z"/>
  <path fill="#FDFDFD" opacity="1.000000" stroke="none" d=" M86.344048,70.946419 C85.996117,70.555481 85.993500,70.110954 85.986488,69.333069 C86.479256,68.735657 86.976418,68.471603 87.732620,68.096237 C87.557564,68.954231 87.123466,69.923531 86.344048,70.946419 z"/>
  <path fill="#FDFDFD" opacity="1.000000" stroke="none" d=" M100.770958,81.171547 C101.317871,81.468559 101.636765,81.936707 101.973457,82.702850 C101.508484,82.448128 101.025719,81.895409 100.770958,81.171547 z"/>
  <path fill="#72924B" opacity="1.000000" stroke="none" d=" M80.683228,33.072929 C80.483101,33.438305 79.983315,33.702370 79.187180,33.956741 C79.388405,33.621910 79.885986,33.296764 80.683228,33.072929 z"/>
  <path fill="#4B6434" opacity="1.000000" stroke="none" d=" M92.308968,46.895699 C92.210526,46.442013 92.417160,45.881317 92.891571,45.171288 C92.977585,45.610870 92.795815,46.199783 92.308968,46.895699 z"/>
  <path fill="#C6D9D4" opacity="1.000000" stroke="none" d=" M144.211273,156.107391 C144.161194,155.947662 144.324280,155.628143 144.725220,155.180710 C144.783539,155.351059 144.603973,155.649338 144.211273,156.107391 z"/>
  <path fill="#404551" opacity="1.000000" stroke="none" d=" M134.624100,74.157654 C135.753922,75.507164 136.603058,77.043274 137.727890,78.790939 C136.796417,81.168884 135.589249,83.335281 133.877502,85.839645 C132.980896,86.817307 132.588821,87.457008 132.196762,88.096703 C132.196762,88.096703 132.090485,88.069405 131.796570,88.128937 C131.242065,88.466789 130.981491,88.745110 130.384308,89.055603 C128.748718,89.394569 127.449730,89.701363 126.150726,90.008148 C128.881622,84.786850 131.612518,79.565552 134.624100,74.157654 z"/>
  <path fill="#C4D0D0" opacity="1.000000" stroke="none" d=" M130.732468,91.632530 C130.907516,93.104950 131.082581,94.577370 131.304489,96.443916 C136.152298,96.443916 141.203262,97.296944 145.750366,96.150902 C148.902435,95.356453 149.891495,95.841980 150.960968,98.649490 C151.001221,98.999390 150.992096,98.987556 150.549469,98.989578 C145.405365,99.326149 140.703857,99.660698 135.541779,99.991791 C131.405426,99.974838 127.729668,99.961349 124.307938,99.676674 C126.484093,98.713882 129.702408,99.535034 128.847626,95.322220 C129.432831,93.855148 130.082642,92.743843 130.732468,91.632530 z"/>
  <path fill="#5F6771" opacity="1.000000" stroke="none" d=" M130.920364,91.388550 C130.082642,92.743843 129.432831,93.855148 128.460724,95.422615 C126.205208,95.627495 124.271965,95.376221 122.338730,95.124954 C123.411484,93.512817 124.484222,91.900673 125.853851,90.148346 C127.449730,89.701363 128.748718,89.394569 130.713959,89.069260 C131.596375,89.013802 131.812546,88.976875 132.028732,88.939949 C131.721909,89.674820 131.415085,90.409691 130.920364,91.388550 z"/>
  <path fill="#C4D0D0" opacity="1.000000" stroke="none" d=" M132.504639,88.055206 C132.588821,87.457008 132.980896,86.817307 133.701843,86.128448 C133.624664,86.724091 133.218582,87.368896 132.504639,88.055206 z"/>
  <path fill="#C4D0D0" opacity="1.000000" stroke="none" d=" M132.064667,88.751404 C131.812546,88.976875 131.596375,89.013802 131.050568,89.037079 C130.981491,88.745110 131.242065,88.466789 131.798935,88.183746 C132.095230,88.179031 132.100586,88.562866 132.064667,88.751404 z"/>
  <path fill="#6C9445" opacity="1.000000" stroke="none" d=" M81.004189,93.954147 C81.386108,94.106178 81.768028,94.258202 82.367928,94.529037 C82.585907,94.647850 82.664749,94.993729 82.748596,95.274429 C84.028137,96.448036 85.223831,97.340942 86.361763,98.613548 C85.972214,102.993347 85.640434,106.993439 84.998428,111.179794 C82.803123,113.928864 80.918037,116.491669 78.833435,118.795082 C77.854057,118.887512 76.510284,119.101265 76.384918,119.613312 C75.502182,123.218903 72.920738,123.382797 69.972931,122.750458 C69.266273,121.914810 68.600548,121.414894 67.950836,120.527008 C70.392982,115.693535 72.819099,111.248039 75.390030,106.537201 C68.570396,103.981148 75.902084,101.667313 76.145081,98.745422 C76.492905,97.206886 76.654121,95.932739 77.117691,94.463806 C78.614769,94.164062 79.809479,94.059105 81.004189,93.954147 z"/>
  <path fill="#E9EBF1" opacity="1.000000" stroke="none" d=" M80.995277,93.569565 C79.809479,94.059105 78.614769,94.164062 76.767746,94.448006 C75.420479,94.588913 74.725540,94.550835 74.013962,94.169891 C71.190460,91.813881 68.383591,89.800743 65.643257,87.835327 C65.788040,85.466049 65.945099,82.898308 66.101830,80.330544 C66.375725,75.843163 66.649422,71.355774 67.103424,66.586929 C68.528358,65.204025 69.773071,64.102577 71.392731,62.998337 C72.515594,63.045170 73.263512,63.094799 74.011421,63.144428 C74.653145,63.891987 75.294861,64.639542 75.969315,65.690872 C75.011223,71.929451 73.658264,77.835007 73.175354,83.810867 C72.916092,87.019180 73.917000,90.417740 78.329216,91.005447 C79.294579,91.134026 80.104736,92.427818 80.995277,93.569565 z"/>
  <path fill="#333741" opacity="1.000000" stroke="none" d=" M119.041542,70.013100 C119.741783,67.639076 120.442024,65.265053 121.137329,62.503002 C122.116280,60.313900 123.100159,58.512833 124.150856,56.099388 C124.572342,55.342106 124.927025,55.197205 125.281708,55.052307 C125.808197,55.022011 126.334694,54.991714 127.037811,54.918388 C127.658195,56.548935 128.866440,58.469090 128.419327,59.855312 C125.878555,67.732567 122.942299,75.482262 119.622330,83.626144 C118.379227,84.762543 117.654381,85.548134 116.724686,86.511078 C116.012390,87.172112 115.504944,87.655807 114.660858,88.074646 C113.908791,87.299835 113.493347,86.589882 113.079285,85.695068 C113.080673,85.510193 113.053810,85.141411 113.053810,85.141411 C113.250908,84.556572 113.448006,83.971733 114.214859,83.180016 C114.935310,82.007622 115.085999,81.042099 115.236687,80.076584 C115.324486,79.153259 115.412277,78.229935 116.125977,77.233994 C117.842224,77.088974 118.932564,77.016579 120.022888,76.944183 C119.695770,74.633827 119.368660,72.323463 119.041542,70.013100 z"/>
  <path fill="#C4D0D0" opacity="1.000000" stroke="none" d=" M115.570900,94.886963 C116.809921,95.545395 118.048943,96.203835 119.640976,97.237732 C119.994789,98.072716 119.995583,98.532234 119.644478,98.990631 C118.823471,98.976738 118.354362,98.963951 117.677017,98.645462 C114.006462,97.957443 110.544144,97.575119 106.614014,97.139366 C103.021446,97.043457 99.856049,97.300865 96.781982,96.884293 C92.733109,96.335632 88.755989,95.257393 85.116188,94.294205 C85.992264,94.106705 86.500175,94.031860 87.008087,93.957016 C92.737015,94.323174 98.462433,94.786888 104.197113,94.993217 C105.817375,95.051514 107.464714,94.356987 109.734421,94.223152 C112.103104,94.588028 113.837006,94.737495 115.570900,94.886963 z"/>
  <path fill="#646A79" opacity="1.000000" stroke="none" d=" M115.696548,94.530930 C113.837006,94.737495 112.103104,94.588028 110.078140,94.191467 C110.489243,91.512680 111.191399,89.080986 112.273018,86.293472 C112.652473,85.937645 113.077904,85.879936 113.077904,85.879936 C113.493347,86.589882 113.908791,87.299835 114.860199,88.314568 C116.000381,88.782433 116.604591,88.945526 117.208801,89.108612 C116.746597,90.797379 116.284393,92.486145 115.696548,94.530930 z"/>
  <path fill="#484C58" opacity="1.000000" stroke="none" d=" M118.760620,70.041023 C119.368660,72.323463 119.695770,74.633827 120.022888,76.944183 C118.932564,77.016579 117.842224,77.088974 116.453789,77.111801 C116.806023,75.277222 117.456360,73.492195 117.997543,71.350342 C118.085503,70.685310 118.282600,70.377129 118.760620,70.041023 z"/>
  <path fill="#E9EBF1" opacity="1.000000" stroke="none" d=" M86.936447,93.604729 C86.500175,94.031860 85.992264,94.106705 84.741028,94.261887 C83.553391,94.559395 83.109070,94.776558 82.664749,94.993729 C82.664749,94.993729 82.585907,94.647850 82.679512,94.498642 C83.520195,91.683105 84.824989,91.096977 86.936447,93.604729 z"/>
  <path fill="#484C58" opacity="1.000000" stroke="none" d=" M114.875725,80.140488 C115.085999,81.042099 114.935310,82.007622 114.478996,83.018097 C114.287163,82.110168 114.400963,81.157280 114.875725,80.140488 z"/>
  <path fill="#484C58" opacity="1.000000" stroke="none" d=" M113.079285,85.695068 C113.077904,85.879936 112.652473,85.937645 112.438034,85.947250 C112.333641,85.678772 112.443687,85.400681 112.803772,85.132004 C113.053810,85.141411 113.080673,85.510193 113.079285,85.695068 z"/>
  <path fill="#D2E4E5" opacity="1.000000" stroke="none" d=" M138.614899,159.940308 C137.673950,161.443802 136.370621,162.916931 135.016052,164.724274 C130.037979,166.369537 125.177315,168.156982 120.165108,168.852737 C115.495857,169.500900 110.665359,168.987396 105.455399,168.603943 C106.664810,167.146179 108.324684,166.069733 110.405991,164.995560 C114.216461,164.332031 117.605484,163.666229 120.994507,163.000427 C125.783920,162.887802 130.745697,163.686081 134.650681,159.607391 C135.174500,159.060257 137.019394,159.777969 138.614899,159.940308 z"/>
  <path fill="#C6D9D4" opacity="1.000000" stroke="none" d=" M109.984543,164.993286 C108.324684,166.069733 106.664810,167.146179 104.985138,168.586304 C93.324318,169.175201 82.240242,166.448944 71.191422,162.275681 C71.272957,161.466003 71.529236,160.990540 72.225586,160.405716 C76.696617,161.797211 80.671776,163.485611 84.785141,164.709595 C86.508102,165.222275 89.765411,166.170303 88.190643,161.731995 C89.331421,162.207932 90.313080,162.879120 91.219849,163.639587 C95.889000,167.555466 104.301086,165.529510 106.204453,160.188217 C107.691620,161.851288 108.838081,163.422287 109.984543,164.993286 z"/>
  <path fill="#F3FBFC" opacity="1.000000" stroke="none" d=" M112.551361,177.009552 C112.529640,177.758286 112.193298,179.012314 111.590546,179.157059 C109.542175,179.649002 107.386299,180.041321 105.295670,179.945236 C98.546394,179.635086 91.805031,179.124954 85.070724,178.569473 C84.534042,178.525208 84.074852,177.541550 83.573456,176.987595 C90.889297,176.987595 97.973701,176.987595 105.522301,176.982529 C108.029221,176.987137 110.071930,176.996811 112.551361,177.009552 z"/>
  <path fill="#D2E4E5" opacity="1.000000" stroke="none" d=" M140.245010,163.992950 C140.271530,163.878754 140.548050,163.769379 140.909851,163.831757 C140.828445,164.001617 140.661743,163.999710 140.245010,163.992950 z"/>
  <path fill="#D4E2DD" opacity="1.000000" stroke="none" d=" M119.996384,98.991745 C119.995583,98.532234 119.994789,98.072716 119.992447,97.267014 C120.539520,96.311646 121.088158,95.702454 121.987762,95.109116 C124.271965,95.376221 126.205208,95.627495 128.525360,95.778366 C129.702408,99.535034 126.484093,98.713882 123.935379,99.694908 C122.204666,99.653473 121.100525,99.322609 119.996384,98.991745 z"/>
  <path fill="#484C58" opacity="1.000000" stroke="none" d=" M117.474579,88.883965 C116.604591,88.945526 116.000381,88.782433 115.196838,88.379425 C115.504944,87.655807 116.012390,87.172112 116.855042,86.428467 C117.190254,86.168518 117.443268,85.998543 117.443268,85.998543 C117.542297,86.885468 117.641335,87.772392 117.474579,88.883965 z"/>
  <path fill="#646A79" opacity="1.000000" stroke="none" d=" M117.785362,85.880096 C117.443268,85.998543 117.190254,86.168518 117.059891,86.251129 C117.654381,85.548134 118.379227,84.762543 119.474014,83.958786 C119.271782,84.547646 118.699623,85.154648 117.785362,85.880096 z"/>
  <path fill="#C2D3BB" opacity="1.000000" stroke="none" d=" M132.081085,152.674896 C130.159164,154.198959 128.382599,155.437073 126.198036,156.558044 C125.523155,155.958084 125.256264,155.475296 124.993431,154.671432 C124.959351,153.924683 124.921211,153.498978 124.736603,152.722305 C119.416862,149.565033 114.544327,149.812927 111.685547,152.980133 C110.578575,152.621368 109.791473,152.294037 108.800339,151.693649 C106.435242,150.285263 104.274178,149.149933 102.009262,147.667664 C101.858116,146.840225 101.810844,146.359741 101.916397,145.601303 C102.928200,144.443726 103.787193,143.564102 105.031036,142.815643 C107.286903,142.872879 109.157921,142.798935 111.362579,142.771820 C112.144920,142.831787 112.593636,142.844955 113.275070,143.173187 C118.513107,144.225708 123.518410,144.963120 128.501190,145.697220 C128.832520,147.276230 129.150818,148.793091 129.624756,151.051712 C130.801727,149.226257 131.528488,148.099045 132.255249,146.971848 C132.245651,148.777542 132.236038,150.583237 132.081085,152.674896 M127.508156,152.623047 C127.508156,152.623047 127.423622,152.494186 127.508156,152.623047 z"/>
  <path fill="#8CB168" opacity="1.000000" stroke="none" d=" M138.227203,133.135590 C135.117310,134.694702 132.007401,136.253815 128.109390,137.925079 C124.549698,137.669250 121.778122,137.301285 118.872925,136.639771 C117.826523,133.899094 116.913727,131.451950 116.197525,128.733643 C117.260231,128.289993 118.126350,128.117523 119.194748,128.239822 C121.947777,129.339890 124.498512,130.145187 127.450104,130.954315 C128.921112,130.927689 129.991241,130.897217 131.457214,130.894974 C133.977753,131.660660 136.102478,132.398132 138.227203,133.135590 z"/>
  <path fill="#BBD8A2" opacity="1.000000" stroke="none" d=" M138.571655,133.111389 C136.102478,132.398132 133.977753,131.660660 131.401764,130.565216 C130.753510,129.345718 130.556488,128.484222 130.335632,127.518387 C132.787567,127.711250 134.884232,127.876160 137.021179,128.044250 C136.189270,126.373840 135.579010,125.148514 135.328705,123.994804 C137.606781,124.662430 139.524933,125.258446 141.993225,126.025414 C141.556549,124.458275 141.344910,123.698776 141.538239,122.950714 C143.293442,122.967720 144.643677,122.973297 145.993896,122.978867 C144.330551,126.082886 142.667206,129.186905 140.998688,132.667236 C140.301056,133.058090 139.608582,133.072647 138.571655,133.111389 z"/>
  <path fill="#95B17F" opacity="1.000000" stroke="none" d=" M132.259491,146.618683 C131.528488,148.099045 130.801727,149.226257 129.624756,151.051712 C129.150818,148.793091 128.832520,147.276230 128.501190,145.697220 C123.518410,144.963120 118.513107,144.225708 113.550262,142.908478 C115.720665,142.238846 117.848602,142.149033 120.334015,142.212112 C123.323021,142.230957 125.954529,142.096893 128.586044,141.962845 C129.811951,143.397064 131.037842,144.831299 132.259491,146.618683 z"/>
  <path fill="#678E47" opacity="1.000000" stroke="none" d=" M128.563721,141.566620 C125.954529,142.096893 123.323021,142.230957 120.336380,141.833282 C119.656349,139.845459 119.331444,138.389389 119.006531,136.933319 C121.778122,137.301285 124.549698,137.669250 127.766052,138.042633 C128.321014,139.088837 128.431213,140.129608 128.563721,141.566620 z"/>
  <path fill="#E6F1F2" opacity="1.000000" stroke="none" d=" M146.964172,141.658020 C146.020950,142.776321 145.043121,143.551422 144.026245,144.667328 C140.836533,144.120438 141.793747,142.191635 143.074875,140.565872 C144.608643,138.619507 146.083984,138.795273 146.964172,141.658020 z"/>
  <path fill="#E6F1F2" opacity="1.000000" stroke="none" d=" M145.532227,136.551697 C145.476181,136.585297 145.588257,136.518082 145.532227,136.551697 z"/>
  <path fill="#395422" opacity="1.000000" stroke="none" d=" M74.595467,49.089539 C75.125763,50.258270 75.309708,51.415871 75.548141,53.092834 C73.081314,54.127350 70.559975,54.642502 67.701950,55.111965 C66.915230,55.022266 66.465218,54.978256 66.053215,54.572556 C66.396393,52.797424 66.701546,51.383980 67.006699,49.970535 C67.292801,49.799816 67.578896,49.629089 68.352615,49.235626 C69.551598,49.009029 70.262962,49.005161 71.070923,49.176983 C71.471069,49.241940 71.774612,49.131210 72.274139,49.024715 C72.470131,49.028954 72.862045,49.040588 72.862045,49.040588 C73.324402,49.053196 73.786758,49.065800 74.595467,49.089539 z"/>
  <path fill="#3E6129" opacity="1.000000" stroke="none" d=" M70.974319,49.001293 C70.262962,49.005161 69.551598,49.009029 68.487701,49.021873 C67.767235,48.237946 67.399315,47.445034 67.013374,46.323872 C68.433205,46.022377 69.871056,46.049133 71.637840,46.054535 C72.060135,46.358673 72.241402,46.624130 72.741516,47.173779 C72.972458,47.518002 72.981720,47.987972 72.981720,47.987972 C72.967445,48.163834 72.953178,48.339699 72.900482,48.778076 C72.862045,49.040588 72.470131,49.028954 71.997795,49.015663 C71.341751,49.002010 71.158035,49.001652 70.974319,49.001293 z"/>
  <path fill="#517438" opacity="1.000000" stroke="none" d=" M73.154984,47.905716 C72.981720,47.987972 72.972458,47.518002 72.959969,47.283775 C73.074402,47.307518 73.201324,47.565491 73.154984,47.905716 z"/>
  <path fill="#749351" opacity="1.000000" stroke="none" d=" M68.038643,55.157650 C70.559975,54.642502 73.081314,54.127350 75.827820,53.311707 C76.521706,53.017250 76.990417,53.023289 77.810822,53.048553 C78.482513,55.958740 78.994606,58.854370 78.924522,61.735844 C78.913452,62.191055 76.272583,62.582302 74.429520,63.073776 C73.263512,63.094799 72.515594,63.045170 71.125946,62.839264 C69.662361,61.782440 68.840530,60.881897 67.909431,59.724854 C67.536919,58.978512 67.273674,58.488670 67.035255,57.691292 C67.386276,56.641724 67.712456,55.899685 68.038643,55.157650 z"/>
  <path fill="#D9E5E1" opacity="1.000000" stroke="none" d=" M109.004364,151.966705 C109.791473,152.294037 110.578575,152.621368 111.682190,152.972870 C111.998703,152.997025 111.986717,152.990311 112.094643,153.216400 C112.470116,153.634735 112.737663,153.826981 113.055099,154.354584 C113.831436,156.136688 114.290428,157.849030 115.374428,158.940765 C116.151848,159.723724 117.765251,159.676590 119.005699,159.999786 C119.552734,160.825546 120.099770,161.651321 120.820656,162.738754 C117.605484,163.666229 114.216461,164.332031 110.405991,164.995560 C108.838081,163.422287 107.691620,161.851288 105.856514,160.222610 C100.428047,162.330811 98.595818,158.095535 95.953911,155.594757 C97.690300,154.105164 99.299835,152.942871 101.132668,152.085449 C103.747292,153.309753 106.138634,154.229156 108.783646,155.246094 C108.856125,154.169159 108.930244,153.067932 109.004364,151.966705 z"/>
  <path fill="#D8E4D8" opacity="1.000000" stroke="none" d=" M118.981400,159.668213 C117.765251,159.676590 116.151848,159.723724 115.374428,158.940765 C114.290428,157.849030 113.831436,156.136688 112.945976,154.129120 C112.520226,153.375626 112.253471,153.182968 111.986717,152.990311 C111.986717,152.990311 111.998703,152.997025 112.002060,153.004303 C114.544327,149.812927 119.416862,149.565033 124.437164,152.701508 C123.757721,153.245636 123.231255,153.459579 122.704796,153.673508 C123.466324,154.113159 124.227852,154.552826 124.989372,154.992493 C125.256264,155.475296 125.523155,155.958084 125.898689,156.693970 C123.613007,157.279022 121.218681,157.611008 118.637764,157.968872 C118.539848,157.549515 118.748482,158.443069 118.981400,159.668213 z"/>
  <path fill="#FEFEFE" opacity="1.000000" stroke="none" d=" M125.224464,54.781815 C124.927025,55.197205 124.572342,55.342106 124.069611,55.742714 C121.779671,55.186752 119.637779,54.375084 117.495888,53.563416 C117.664520,53.059536 117.833145,52.555656 118.001770,52.051777 C120.065193,52.700333 122.128609,53.348885 124.573700,53.998989 C125.025986,54.170799 125.096603,54.341061 125.224464,54.781815 z"/>
  <path fill="#608536" opacity="1.000000" stroke="none" d=" M59.685631,58.971127 C58.822487,62.775425 57.552280,66.578018 56.123650,70.678947 C55.105396,70.251930 53.411274,69.038582 53.508209,68.872864 C55.719372,65.092575 52.549736,64.597038 50.154762,63.235527 C53.052593,61.639458 56.165581,60.304440 59.685631,58.971127 z"/>
  <path fill="#80A972" opacity="1.000000" stroke="none" d=" M68.231026,148.875687 C67.926964,148.093719 67.622910,147.311768 67.185616,146.239410 C67.052383,145.949005 67.117531,145.506256 67.414406,145.231018 C67.784660,144.299805 67.858040,143.643845 67.931412,142.987869 C68.387146,142.295685 68.842888,141.603500 69.759857,141.227356 C72.644089,144.472122 75.225243,146.926132 80.222717,144.818558 C78.500259,142.853180 77.245491,141.421432 76.366165,139.988861 C77.491631,139.993805 78.241661,139.999573 79.310852,140.025024 C79.839897,140.082108 80.049767,140.119507 80.311615,140.384155 C80.618660,141.004272 80.873741,141.397141 81.099136,142.176590 C80.304749,146.517349 79.540047,150.471527 78.442581,154.357712 C77.454445,154.111954 76.799072,153.934219 76.119904,153.430832 C75.397148,152.070740 74.698166,151.036285 73.964706,149.657227 C72.690628,146.514114 71.119362,146.166473 69.084137,148.790283 C69.005676,148.913116 68.946693,149.198624 68.804962,149.208923 C68.465836,149.171890 68.321770,149.057388 68.231026,148.875687 z"/>
  <path fill="#6E974E" opacity="1.000000" stroke="none" d=" M66.225754,130.220337 C66.225754,130.220337 66.654289,130.181763 67.239075,130.121857 C70.219109,129.043945 72.614372,128.025940 75.155884,127.300217 C76.203201,128.717560 77.104271,129.842636 77.970261,131.318024 C76.286667,133.120682 74.638161,134.573013 72.768250,135.940857 C72.033012,135.906952 71.519188,135.957535 70.741302,135.896271 C69.965668,135.528397 69.454071,135.272385 68.942482,135.016357 C68.539352,134.974945 68.136215,134.933533 67.350494,134.531586 C66.720512,132.854156 66.473129,131.537247 66.225754,130.220337 z"/>
  <path fill="#7AA466" opacity="1.000000" stroke="none" d=" M71.005356,136.008118 C71.519188,135.957535 72.033012,135.906952 72.804504,136.284058 C74.038353,137.804382 75.014534,138.897049 75.990723,139.989700 C77.245491,141.421432 78.500259,142.853180 80.222717,144.818558 C75.225243,146.926132 72.644089,144.472122 70.059021,141.214752 C69.913734,139.872482 69.930511,138.858856 70.155647,137.341660 C70.577789,136.561432 70.791573,136.284775 71.005356,136.008118 z"/>
  <path fill="#90B182" opacity="1.000000" stroke="none" d=" M75.009636,127.007935 C72.614372,128.025940 70.219109,129.043945 67.449478,130.076996 C66.285675,129.058243 65.496246,128.024429 64.323524,126.964661 C63.951344,126.465363 63.962460,125.992027 64.365776,125.184898 C65.791008,124.826256 66.824028,124.801399 68.247040,124.847847 C70.788239,125.304512 72.939468,125.689880 75.064285,126.307571 C75.037872,126.539894 75.009636,127.007942 75.009636,127.007935 z"/>
  <path fill="#90B182" opacity="1.000000" stroke="none" d=" M65.854454,130.157013 C66.473129,131.537247 66.720512,132.854156 67.047684,134.504730 C66.525414,135.327164 65.923363,135.815933 64.906197,136.641724 C65.216057,134.178741 61.217312,131.985382 65.854454,130.157013 z"/>
  <path fill="#8AAD85" opacity="1.000000" stroke="none" d=" M67.695969,143.169937 C67.858040,143.643845 67.784660,144.299805 67.432930,145.008026 C67.256554,144.490845 67.358536,143.921432 67.695969,143.169937 z"/>
  <path fill="#739D56" opacity="1.000000" stroke="none" d=" M70.741302,135.896271 C70.791573,136.284775 70.577789,136.561432 70.125580,136.960587 C69.585869,136.594437 69.284569,136.105789 68.962875,135.316742 C69.454071,135.272385 69.965668,135.528397 70.741302,135.896271 z"/>
  <path fill="#7FA257" opacity="1.000000" stroke="none" d=" M75.958481,99.009811 C75.902084,101.667313 68.570396,103.981148 75.390030,106.537201 C72.819099,111.248039 70.392982,115.693535 67.598022,120.531403 C66.139786,119.572731 65.050407,118.221703 63.961025,116.870674 C64.633934,115.405540 65.305664,113.939865 65.980026,112.475403 C67.077164,110.092834 68.176033,107.711060 69.078369,104.737991 C69.090477,102.107277 69.298401,100.067535 69.506332,98.027786 C69.821045,98.255455 70.135750,98.483124 70.858688,99.035309 C72.830772,99.243164 74.394623,99.126488 75.958481,99.009811 z"/>
  <path fill="#CDD7DE" opacity="1.000000" stroke="none" d=" M66.923203,66.868385 C66.649422,71.355774 66.375725,75.843163 66.101830,80.330544 C65.945099,82.898308 65.788040,85.466049 65.643257,87.835327 C68.383591,89.800743 71.190460,91.813881 73.688232,94.311211 C72.910240,94.857773 72.441338,94.920135 71.754234,94.926788 C71.536041,94.871078 71.091469,94.798882 71.091469,94.798882 C65.029167,95.272766 63.923836,90.683807 62.207344,86.191681 C62.855145,80.593231 63.812134,75.206352 64.926308,69.094788 C65.696732,67.869522 66.309967,67.368950 66.923203,66.868385 z"/>
  <path fill="#C6DBC4" opacity="1.000000" stroke="none" d=" M69.092590,98.019516 C69.298401,100.067535 69.090477,102.107277 68.767090,104.573898 C67.191650,106.581390 65.731667,108.162010 63.460945,110.620346 C63.256294,107.766548 63.115921,105.809082 62.942108,103.430893 C64.832062,101.343864 66.755455,99.677551 69.092590,98.019516 z"/>
  <path fill="#789C54" opacity="1.000000" stroke="none" d=" M71.972427,94.982506 C72.441338,94.920135 72.910240,94.857773 73.704872,94.654083 C74.725540,94.550835 75.420479,94.588913 76.465378,94.642792 C76.654121,95.932739 76.492905,97.206886 76.145081,98.745422 C74.394623,99.126488 72.830772,99.243164 71.053627,99.081352 C70.866562,98.409538 70.892792,98.016205 71.214127,97.165665 C71.663635,96.133133 71.818031,95.557823 71.972427,94.982506 z"/>
  <path fill="#A5BE97" opacity="1.000000" stroke="none" d=" M71.754234,94.926788 C71.818031,95.557823 71.663635,96.133133 71.248421,96.870689 C70.958435,96.453346 70.929268,95.873756 70.995781,95.046524 C71.091469,94.798882 71.536041,94.871078 71.754234,94.926788 z"/>
  <path fill="#D3E4E5" opacity="1.000000" stroke="none" d=" M67.847916,148.921280 C68.321770,149.057388 68.465836,149.171890 68.918427,149.613922 C71.496979,151.257904 73.820335,152.507187 76.143692,153.756470 C76.799072,153.934219 77.454445,154.111954 78.444611,154.517944 C78.779396,154.746201 78.857986,155.063400 78.916733,155.409943 C81.982643,157.827133 84.989815,159.897781 87.996979,161.968445 C89.765411,166.170303 86.508102,165.222275 84.785141,164.709595 C80.671776,163.485611 76.696617,161.797211 72.331902,160.155716 C69.647072,157.465393 67.295990,154.915710 64.226219,151.586624 C64.851761,151.080612 66.158279,150.023743 67.847916,148.921280 z"/>
  <path fill="#CDDEC6" opacity="1.000000" stroke="none" d=" M145.992340,122.598755 C144.643677,122.973297 143.293442,122.967720 141.334885,122.647430 C137.148453,120.230156 133.570374,118.127602 130.220459,115.748581 C134.002945,113.850571 137.557251,112.229034 141.305374,110.519073 C141.764267,111.188889 142.385788,112.096115 143.005463,113.252701 C143.003632,113.502052 143.000000,114.000763 143.000000,114.000763 C142.945740,114.924614 142.564117,115.996201 142.901306,116.743393 C143.759827,118.645782 144.939590,120.403198 145.992340,122.598755 M137.548569,115.735802 C136.627579,115.735802 135.706589,115.735802 134.785583,115.735802 C134.839767,116.141113 134.893951,116.546425 134.948135,116.951744 C135.802994,116.753639 136.657867,116.555534 137.548569,115.735802 z"/>
  <path fill="#C4D5C7" opacity="1.000000" stroke="none" d=" M143.251740,114.161194 C143.000000,114.000763 143.003632,113.502052 143.278763,113.053917 C145.364990,111.406357 147.176086,110.206932 148.987183,109.007507 C148.987183,109.007507 149.000183,109.501999 149.002380,110.088203 C149.339645,111.448082 149.674698,112.221748 150.009766,112.995422 C150.008560,113.741684 150.007324,114.487953 150.011475,115.606750 C147.845718,115.426735 145.674591,114.874184 143.251740,114.161194 z"/>
  <path fill="#DEEDEF" opacity="1.000000" stroke="none" d=" M76.449203,177.533844 C76.415840,177.478073 76.482559,177.589630 76.449203,177.533844 z"/>
  <path fill="#3E6129" opacity="1.000000" stroke="none" d=" M66.797020,49.715641 C66.701546,51.383980 66.396393,52.797424 65.807602,54.748703 C65.337334,55.844040 65.150703,56.401539 64.640610,56.822174 C62.842785,56.099545 61.368416,55.513775 59.894051,54.928005 C60.638260,53.544640 61.382469,52.161278 62.157261,50.414898 C63.654343,49.854836 65.120842,49.657791 66.797020,49.715641 z"/>
  <path fill="#608536" opacity="1.000000" stroke="none" d=" M59.521263,54.948063 C61.368416,55.513775 62.842785,56.099545 64.812775,57.074898 C65.875740,57.642593 66.443077,57.820709 67.010422,57.998829 C67.273674,58.488670 67.536919,58.978512 67.659386,60.006485 C66.014755,60.701534 64.510910,60.858448 63.007069,61.015366 C62.540882,60.024151 62.074692,59.032932 61.286484,58.068832 C58.575562,57.730083 56.186661,57.364216 52.741413,56.836563 C55.363628,56.071869 57.256054,55.519993 59.521263,54.948063 z"/>
  <path fill="#5D8040" opacity="1.000000" stroke="none" d=" M63.733639,116.954330 C65.050407,118.221703 66.139786,119.572731 67.581993,120.919373 C68.600548,121.414894 69.266273,121.914810 69.665344,122.771973 C68.884796,123.678337 68.370926,124.227440 67.857056,124.776550 C66.824028,124.801399 65.791008,124.826256 64.369186,124.829285 C61.318390,122.856026 59.178795,120.801437 62.800045,117.396042 C63.031891,117.136917 63.506256,117.037994 63.733639,116.954330 z"/>
  <path fill="#5D8040" opacity="1.000000" stroke="none" d=" M63.004581,61.383442 C64.510910,60.858448 66.014755,60.701534 67.768646,60.262985 C68.840530,60.881897 69.662361,61.782440 70.750992,62.842056 C69.773071,64.102577 68.528358,65.204025 67.103424,66.586929 C66.309967,67.368950 65.696732,67.869522 64.951897,68.680260 C64.115295,69.000427 63.410297,69.010429 62.352444,69.020752 C58.736294,66.101776 64.322510,64.402878 63.004581,61.383442 z"/>
  <path fill="#CEDCCE" opacity="1.000000" stroke="none" d=" M148.991852,108.633453 C147.176086,110.206932 145.364990,111.406357 143.280609,112.804565 C142.385788,112.096115 141.764267,111.188889 141.305374,110.519073 C137.557251,112.229034 134.002945,113.850571 129.915939,115.621567 C128.602127,114.512741 127.821014,113.254471 127.352051,111.951859 C127.961304,111.577522 128.258392,111.247520 128.555496,110.917519 C127.710381,110.607315 126.865273,110.297112 126.010231,109.993896 C126.000305,110.000877 126.012215,109.980423 125.990494,109.663742 C125.640717,108.571907 125.312660,107.796738 125.429565,107.012421 C128.248001,107.004250 130.621475,107.005226 133.003510,107.367828 C134.162064,108.154465 135.292984,108.876434 136.465408,108.951668 C140.906281,109.236641 143.964981,103.463676 148.986572,106.015663 C148.989883,106.763573 148.993210,107.511490 148.991852,108.633453 z"/>
  <path fill="#D4E2DD" opacity="1.000000" stroke="none" d=" M148.952515,105.649506 C143.964981,103.463676 140.906281,109.236641 136.465408,108.951668 C135.292984,108.876434 134.162064,108.154465 133.324493,107.226898 C135.328201,105.963417 137.019501,105.202499 138.572372,104.503860 C137.537399,102.688179 136.769882,101.341713 136.002365,99.995255 C140.703857,99.660698 145.405365,99.326149 150.541916,98.987473 C150.644745,101.199005 146.373505,102.127579 148.952515,105.649506 z"/>
  <path fill="#D4E2DD" opacity="1.000000" stroke="none" d=" M150.259460,112.994415 C149.674698,112.221748 149.339645,111.448082 149.009491,110.335434 C149.673965,110.758080 150.333542,111.519684 151.000793,112.632568 C151.008484,112.983849 150.509171,112.993401 150.259460,112.994415 z"/>
  <path fill="#DCE9E1" opacity="1.000000" stroke="none" d=" M135.541779,99.991791 C136.769882,101.341713 137.537399,102.688179 138.572372,104.503860 C137.019501,105.202499 135.328201,105.963417 133.315918,106.865265 C130.621475,107.005226 128.248001,107.004250 125.140808,106.868713 C122.942245,106.366386 121.477402,105.998619 119.195091,105.425621 C118.932571,105.146202 117.918472,104.066811 116.918533,102.623260 C117.250221,101.156464 117.567741,100.053810 117.885262,98.951157 C118.354362,98.963951 118.823471,98.976738 119.644470,98.990631 C121.100525,99.322609 122.204666,99.653473 123.681366,99.966095 C127.729668,99.961349 131.405426,99.974838 135.541779,99.991791 z"/>
  <path fill="#CEE0D1" opacity="1.000000" stroke="none" d=" M85.308655,110.993530 C85.640434,106.993439 85.972214,102.993347 86.748848,98.575516 C89.469841,98.385323 91.745995,98.612877 94.043007,99.217194 C95.762390,102.156387 97.460907,104.718811 99.067863,107.604385 C93.283524,113.752190 90.041992,115.494072 85.308655,110.993530 z"/>
  <path fill="#ADCAA3" opacity="1.000000" stroke="none" d=" M84.998428,111.179794 C90.041992,115.494072 93.283524,113.752190 99.424240,107.541122 C103.574570,105.429581 107.276962,103.704430 111.039040,102.270645 C111.129120,102.757935 111.159515,102.953857 110.902344,103.327454 C101.779854,109.104507 92.944946,114.703896 83.724693,120.219040 C81.903885,119.774681 80.468422,119.414581 79.032959,119.054474 C80.918037,116.491669 82.803123,113.928864 84.998428,111.179794 z"/>
  <path fill="#99B195" opacity="1.000000" stroke="none" d=" M94.022141,98.840424 C91.745995,98.612877 89.469841,98.385323 86.806610,98.195808 C85.223831,97.340942 84.028137,96.448036 82.748596,95.274429 C83.109070,94.776558 83.553391,94.559395 84.372864,94.374535 C88.755989,95.257393 92.733109,96.335632 96.781982,96.884293 C99.856049,97.300865 103.021446,97.043457 106.586540,97.472961 C107.029922,98.535484 107.032967,99.210999 106.604645,99.943779 C102.122902,99.614174 98.072517,99.227303 94.022141,98.840424 z"/>
  <path fill="#78A25D" opacity="1.000000" stroke="none" d=" M78.833435,118.795082 C80.468422,119.414581 81.903885,119.774681 83.647720,120.496475 C83.293999,121.558815 82.631889,122.259460 81.659912,123.109146 C79.263588,124.197205 77.177139,125.136223 75.090691,126.075241 C72.939468,125.689880 70.788239,125.304512 68.247040,124.847847 C68.370926,124.227440 68.884796,123.678337 69.706268,123.107712 C72.920738,123.382797 75.502182,123.218903 76.384918,119.613312 C76.510284,119.101265 77.854057,118.887512 78.833435,118.795082 z"/>
  <path fill="#84A378" opacity="1.000000" stroke="none" d=" M107.036018,99.886513 C107.032967,99.210999 107.029922,98.535484 107.054352,97.526382 C110.544144,97.575119 114.006462,97.957443 117.677017,98.645470 C117.567741,100.053810 117.250221,101.156464 116.727814,102.654716 C116.522911,103.050323 116.142372,103.121529 116.058929,102.820938 C114.380295,102.730156 112.785103,102.939972 111.189919,103.149788 C111.159515,102.953857 111.129120,102.757935 111.157776,101.968338 C109.823227,100.878624 108.429619,100.382568 107.036018,99.886513 z"/>
  <path fill="#9AB59A" opacity="1.000000" stroke="none" d=" M88.190643,161.731995 C84.989815,159.897781 81.982643,157.827133 79.264450,155.382828 C81.671112,155.019989 83.788788,155.030807 86.092072,155.328247 C87.481682,156.113480 88.685684,156.612106 89.949280,157.072845 C90.008858,157.034943 89.898262,157.125626 89.938919,157.477341 C91.234459,159.700363 92.470619,161.992126 94.043327,157.793533 C94.100357,157.579575 94.190628,157.146011 94.408791,157.007965 C95.026985,156.553970 95.427025,156.238007 95.827065,155.922043 C98.595818,158.095535 100.428047,162.330811 105.515808,160.130554 C104.301086,165.529510 95.889000,167.555466 91.219849,163.639587 C90.313080,162.879120 89.331421,162.207932 88.190643,161.731995 z"/>
  <path fill="#1E282D" opacity="1.000000" stroke="none" d=" M94.190628,157.146011 C94.190628,157.146011 94.100357,157.579575 93.709503,157.670929 C92.178528,157.550049 91.038399,157.337830 89.898262,157.125610 C89.898262,157.125626 90.008858,157.034943 89.891830,156.768005 C89.558617,155.060379 89.342430,153.619659 89.324104,152.033722 C89.794983,151.676331 89.954681,151.398941 90.324837,150.917175 C91.757149,149.028397 92.908417,147.304108 93.964401,145.523315 C95.631210,142.712463 97.234070,139.863678 98.927094,136.779114 C99.017143,136.356339 99.044083,136.185379 99.437134,135.987122 C100.608971,135.134811 101.316750,134.172989 102.239922,133.511993 C104.455948,131.925323 106.773087,130.479843 109.144226,129.185577 C109.239029,129.393753 109.359535,129.835114 109.174042,130.101013 C109.730415,131.227188 110.472298,132.087448 110.963654,132.657211 C109.521118,135.367920 108.106155,138.026840 106.387634,140.765167 C105.604790,141.457870 105.125488,142.071167 104.646187,142.684464 C103.787193,143.564102 102.928200,144.443726 101.586029,145.661346 C97.346497,148.814301 94.229912,152.026016 94.190628,157.146011 z"/>
  <path fill="#739850" opacity="1.000000" stroke="none" d=" M106.691185,140.685745 C108.106155,138.026840 109.521118,135.367920 110.963654,132.657211 C110.472298,132.087448 109.730415,131.227188 109.546127,130.147919 C112.069450,129.620895 114.035187,129.312851 116.000931,129.004822 C116.913727,131.451950 117.826523,133.899094 118.872925,136.639771 C119.331444,138.389389 119.656349,139.845459 119.978897,141.680374 C117.848602,142.149033 115.720665,142.238846 113.317535,142.593384 C112.593636,142.844955 112.144920,142.831787 111.272263,142.424316 C109.462601,141.581909 108.076889,141.133835 106.691185,140.685745 z"/>
  <path fill="#D8E4D8" opacity="1.000000" stroke="none" d=" M108.800331,151.693649 C108.930244,153.067932 108.856125,154.169159 108.783646,155.246094 C106.138634,154.229156 103.747292,153.309753 101.132629,151.744736 C101.310577,150.070953 101.711845,149.042770 102.113121,148.014603 C104.274178,149.149933 106.435242,150.285263 108.800331,151.693649 z"/>
  <path fill="#545B69" opacity="1.000000" stroke="none" d=" M102.009262,147.667664 C101.711845,149.042770 101.310577,150.070953 100.909348,151.439850 C99.299835,152.942871 97.690300,154.105164 95.953911,155.594757 C95.427025,156.238007 95.026985,156.553970 94.408791,157.007965 C94.229912,152.026016 97.346497,148.814301 101.433212,145.939270 C101.810844,146.359741 101.858116,146.840225 102.009262,147.667664 z"/>
  <path fill="#95B17F" opacity="1.000000" stroke="none" d=" M106.387634,140.765167 C108.076889,141.133835 109.462601,141.581909 110.938629,142.377487 C109.157921,142.798935 107.286903,142.872879 105.031036,142.815643 C105.125488,142.071167 105.604790,141.457870 106.387634,140.765167 z"/>
  <path fill="#E6F1F2" opacity="1.000000" stroke="none" d=" M124.993431,154.671432 C124.227852,154.552826 123.466324,154.113159 122.704796,153.673508 C123.231255,153.459579 123.757721,153.245636 124.583618,153.052490 C124.921211,153.498978 124.959351,153.924683 124.993431,154.671432 z"/>
  <path fill="#E6F1F2" opacity="1.000000" stroke="none" d=" M127.465889,152.558624 C127.423622,152.494186 127.508156,152.623047 127.465889,152.558624 z"/>
  <path fill="#A9C78E" opacity="1.000000" stroke="none" d=" M116.197525,128.733643 C114.035187,129.312851 112.069450,129.620895 109.731621,129.882019 C109.359535,129.835114 109.239029,129.393753 109.156464,128.799316 C110.377068,125.769882 111.680237,123.334869 113.202957,121.196968 C115.749397,121.596062 119.036018,125.958542 120.432800,120.009567 C123.276459,119.637230 125.687843,119.267654 128.395142,119.058731 C130.783630,120.787315 132.876205,122.355255 134.968765,123.923195 C135.579010,125.148514 136.189270,126.373840 137.021179,128.044250 C134.884232,127.876160 132.787567,127.711250 130.335632,127.518387 C130.556488,128.484222 130.753510,129.345718 131.005951,130.536987 C129.991241,130.897217 128.921112,130.927689 127.391190,130.594971 C127.118011,128.401749 127.304604,126.571701 127.592918,123.743988 C124.962448,125.028900 121.977463,126.486977 118.992470,127.945061 C118.126350,128.117523 117.260231,128.289993 116.197525,128.733643 z"/>
  <path fill="#97BA76" opacity="1.000000" stroke="none" d=" M119.194748,128.239822 C121.977463,126.486977 124.962448,125.028900 127.592918,123.743988 C127.304604,126.571701 127.118011,128.401749 126.990334,130.591156 C124.498512,130.145187 121.947777,129.339890 119.194748,128.239822 z"/>
  <path fill="#889D6E" opacity="1.000000" stroke="none" d=" M135.328705,123.994804 C132.876205,122.355255 130.783630,120.787315 128.154480,118.887360 C126.850830,117.688438 126.083778,116.821548 125.226753,115.602318 C124.357872,113.523247 123.578964,111.796516 122.574142,109.568939 C124.185181,109.761757 125.098694,109.871086 126.012215,109.980423 C126.012215,109.980423 126.000305,110.000877 126.022858,110.296371 C126.376915,111.059982 126.708405,111.528091 127.039894,111.996201 C127.821014,113.254471 128.602127,114.512741 129.687775,115.898026 C133.570374,118.127602 137.148453,120.230156 140.929901,122.635994 C141.344910,123.698776 141.556549,124.458275 141.993225,126.025414 C139.524933,125.258446 137.606781,124.662430 135.328705,123.994804 z"/>
  <path fill="#5D8040" opacity="1.000000" stroke="none" d=" M67.035255,57.691292 C66.443077,57.820709 65.875740,57.642593 65.136230,57.211758 C65.150703,56.401539 65.337334,55.844040 65.769577,55.110394 C66.465218,54.978256 66.915230,55.022266 67.701950,55.111965 C67.712456,55.899685 67.386276,56.641724 67.035255,57.691292 z"/>
  <path fill="#4B6434" opacity="1.000000" stroke="none" d=" M71.070923,49.176983 C71.158035,49.001652 71.341751,49.002010 71.801804,49.011421 C71.774612,49.131210 71.471069,49.241940 71.070923,49.176983 z"/>
  <path fill="#C2D3BB" opacity="1.000000" stroke="none" d=" M112.094643,153.216400 C112.253471,153.182968 112.520226,153.375626 112.896103,153.793762 C112.737663,153.826981 112.470116,153.634735 112.094643,153.216400 z"/>
  <path fill="#6E9460" opacity="1.000000" stroke="none" d=" M99.071014,136.014420 C99.044083,136.185379 99.017143,136.356339 98.550133,136.768921 C94.414330,138.650253 90.718597,140.289932 86.970985,141.605072 C86.246399,140.923767 85.573685,140.567017 84.515884,140.143860 C82.840408,140.103958 81.550026,140.130432 80.259644,140.156921 C80.049767,140.119507 79.839897,140.082108 79.378784,139.667984 C81.085678,138.526688 83.043808,137.762115 85.352127,136.996033 C87.129883,136.333023 88.557465,135.671539 90.386772,135.010925 C91.858765,135.006134 92.929039,135.000504 94.370705,134.989258 C95.497475,133.994370 96.252846,133.005127 97.277023,132.204071 C98.054230,133.599640 98.562622,134.807037 99.071014,136.014420 z"/>
  <path fill="#739D56" opacity="1.000000" stroke="none" d=" M85.001945,136.997559 C83.043808,137.762115 81.085678,138.526688 79.059616,139.648285 C78.241661,139.999573 77.491631,139.993805 76.366165,139.988861 C75.014534,138.897049 74.038353,137.804382 73.025909,136.368530 C74.638161,134.573013 76.286667,133.120682 78.289223,131.180573 C79.760376,130.465393 80.877480,130.237976 81.997635,130.384155 C83.001099,132.837677 84.001518,134.917618 85.001945,136.997559 z"/>
  <path fill="#8AAD85" opacity="1.000000" stroke="none" d=" M85.906471,155.041626 C83.788788,155.030807 81.671112,155.019989 79.205704,155.036285 C78.857986,155.063400 78.779396,154.746201 78.777374,154.585968 C79.540047,150.471527 80.304749,146.517349 81.357285,142.348282 C82.430481,142.791565 83.215836,143.449722 84.143372,144.381073 C85.160561,145.809311 86.035568,146.964325 86.604050,148.281738 C86.167175,150.643295 86.036819,152.842453 85.906471,155.041626 z"/>
  <path fill="#A1BCA3" opacity="1.000000" stroke="none" d=" M76.119904,153.430832 C73.820335,152.507187 71.496979,151.257904 69.060150,149.603638 C68.946693,149.198624 69.005676,148.913116 69.424782,148.897720 C71.228989,149.255493 72.614082,149.628662 73.999184,150.001831 C74.698166,151.036285 75.397148,152.070740 76.119904,153.430832 z"/>
  <path fill="#C6DBC4" opacity="1.000000" stroke="none" d=" M84.001190,144.107864 C83.215836,143.449722 82.430481,142.791565 81.386978,141.961716 C80.873741,141.397141 80.618660,141.004272 80.311615,140.384155 C81.550026,140.130432 82.840408,140.103958 84.527008,140.477936 C84.615875,141.954880 84.308533,143.031372 84.001190,144.107864 z"/>
  <path fill="#8AAD85" opacity="1.000000" stroke="none" d=" M73.964706,149.657227 C72.614082,149.628662 71.228989,149.255493 69.503250,148.774872 C71.119362,146.166473 72.690628,146.514114 73.964706,149.657227 z"/>
  <path fill="#5D8A42" opacity="1.000000" stroke="none" d=" M81.994591,130.010574 C80.877480,130.237976 79.760376,130.465393 78.324295,130.830261 C77.104271,129.842636 76.203201,128.717560 75.155884,127.300217 C75.009636,127.007942 75.037872,126.539894 75.064285,126.307571 C77.177139,125.136223 79.263588,124.197205 81.877792,123.381630 C88.129379,123.939026 93.853210,124.372971 99.946953,124.834969 C97.355713,126.763229 95.176308,128.385025 92.722809,130.132919 C91.633293,130.840378 90.817871,131.421738 89.619904,131.996185 C86.823090,131.329681 84.408844,130.670120 81.994591,130.010574 z"/>
  <path fill="#CEDCCE" opacity="1.000000" stroke="none" d=" M137.530655,116.046616 C136.657867,116.555534 135.802994,116.753639 134.948135,116.951744 C134.893951,116.546425 134.839767,116.141113 134.785583,115.735802 C135.706589,115.735802 136.627579,115.735802 137.530655,116.046616 z"/>
  <path fill="#BECFBB" opacity="1.000000" stroke="none" d=" M125.990494,109.663742 C125.098694,109.871086 124.185181,109.761757 122.574142,109.568939 C123.578964,111.796516 124.357872,113.523247 124.854248,115.638748 C122.384598,116.348579 120.197464,116.669647 117.980804,116.761169 C117.951271,116.531639 117.934189,116.069107 118.092010,115.742119 C118.138420,113.935127 118.027000,112.455116 117.912659,110.595413 C117.320610,107.850990 116.731491,105.486259 116.142372,103.121529 C116.142372,103.121529 116.522911,103.050323 116.713638,103.018875 C117.918472,104.066811 118.932571,105.146202 119.195091,105.425621 C121.477402,105.998619 122.942245,106.366386 124.695847,106.877853 C125.312660,107.796738 125.640717,108.571907 125.990494,109.663742 z"/>
  <path fill="#BECFBB" opacity="1.000000" stroke="none" d=" M127.352051,111.951859 C126.708405,111.528091 126.376915,111.059982 126.032791,110.289398 C126.865273,110.297112 127.710381,110.607315 128.555496,110.917519 C128.258392,111.247520 127.961304,111.577522 127.352051,111.951859 z"/>
  <path fill="#E8F3EC" opacity="1.000000" stroke="none" d=" M106.604645,99.943779 C108.429619,100.382568 109.823227,100.878624 111.098099,101.676979 C107.276962,103.704430 103.574570,105.429581 99.515808,107.217987 C97.460907,104.718811 95.762390,102.156387 94.043007,99.217194 C98.072517,99.227303 102.122902,99.614174 106.604645,99.943779 z"/>
  <path fill="#588240" opacity="1.000000" stroke="none" d=" M116.058929,102.820938 C116.731491,105.486259 117.320610,107.850990 117.670029,110.878448 C117.179726,113.014069 116.929138,114.486961 116.367531,116.037598 C115.032158,117.710182 114.007797,119.305023 112.983421,120.899857 C111.680237,123.334869 110.377068,125.769882 109.061661,128.591156 C106.773087,130.479843 104.455948,131.925323 102.239922,133.511993 C101.316750,134.172989 100.608971,135.134811 99.437134,135.987122 C98.562622,134.807037 98.054230,133.599640 97.135818,131.912018 C95.814453,130.957123 94.903107,130.482468 93.743042,130.007263 C93.494331,130.006714 92.996902,130.006821 92.996902,130.006821 C95.176308,128.385025 97.355713,126.763229 99.946953,124.834969 C93.853210,124.372971 88.129379,123.939026 82.187668,123.232590 C82.631889,122.259460 83.293999,121.558815 84.033066,120.580727 C92.944946,114.703896 101.779854,109.104507 110.902344,103.327454 C112.785103,102.939972 114.380295,102.730156 116.058929,102.820938 z"/>
  <path fill="#5F7D5D" opacity="1.000000" stroke="none" d=" M86.092072,155.328247 C86.036819,152.842453 86.167175,150.643295 86.843185,148.320221 C87.388840,148.196304 87.870857,148.161575 87.820480,148.188812 C87.770103,148.216064 87.791039,148.328690 87.828926,148.679550 C88.286621,150.079926 88.706436,151.129440 89.126244,152.178955 C89.342430,153.619659 89.558617,155.060379 89.832245,156.805908 C88.685684,156.612106 87.481682,156.113480 86.092072,155.328247 z"/>
  <path fill="#5F7D5D" opacity="1.000000" stroke="none" d=" M89.938919,157.477325 C91.038399,157.337830 92.178528,157.550049 93.652481,157.884888 C92.470619,161.992126 91.234459,159.700363 89.938919,157.477325 z"/>
  <path fill="#B0BFC0" opacity="1.000000" stroke="none" d=" M87.022858,141.929626 C90.718597,140.289932 94.414330,138.650253 98.487030,137.020752 C97.234070,139.863678 95.631210,142.712463 93.964401,145.523315 C92.908417,147.304108 91.757149,149.028397 90.303078,150.583542 C89.235374,149.702286 88.513206,149.015488 87.791039,148.328690 C87.791039,148.328690 87.770103,148.216064 87.826202,147.788757 C87.595818,145.550827 87.309341,143.740234 87.022858,141.929626 z"/>
  <path fill="#8AAD85" opacity="1.000000" stroke="none" d=" M87.828926,148.679550 C88.513206,149.015488 89.235374,149.702286 89.979309,150.722702 C89.954681,151.398941 89.794983,151.676331 89.324104,152.033722 C88.706436,151.129440 88.286621,150.079926 87.828926,148.679550 z"/>
  <path fill="#90B182" opacity="1.000000" stroke="none" d=" M113.202957,121.196976 C114.007797,119.305023 115.032158,117.710182 116.682655,116.061264 C117.517258,116.027824 117.725723,116.048470 117.934189,116.069107 C117.934189,116.069107 117.951271,116.531639 118.007294,117.077957 C118.709053,118.420296 119.354782,119.216316 120.000519,120.012329 C119.036018,125.958542 115.749397,121.596062 113.202957,121.196976 z"/>
  <path fill="#B1C9A9" opacity="1.000000" stroke="none" d=" M120.432800,120.009567 C119.354782,119.216316 118.709053,118.420296 118.036827,117.307495 C120.197464,116.669647 122.384598,116.348579 124.944229,115.991089 C126.083778,116.821548 126.850830,117.688438 127.858551,118.726707 C125.687843,119.267654 123.276459,119.637230 120.432800,120.009567 z"/>
  <path fill="#6E974E" opacity="1.000000" stroke="none" d=" M81.997635,130.384155 C84.408844,130.670120 86.823090,131.329681 89.618378,132.371872 C89.994614,133.506363 89.989830,134.258209 89.985046,135.010071 C88.557465,135.671539 87.129883,136.333023 85.352127,136.996033 C84.001518,134.917618 83.001099,132.837677 81.997635,130.384155 z"/>
  <path fill="#678E47" opacity="1.000000" stroke="none" d=" M90.386772,135.010925 C89.989830,134.258209 89.994614,133.506363 90.000931,132.378815 C90.817871,131.421738 91.633293,130.840378 92.722809,130.132919 C92.996902,130.006821 93.494331,130.006714 93.745560,130.422668 C93.997635,132.224045 93.998466,133.609467 93.999306,134.994873 C92.929039,135.000504 91.858765,135.006134 90.386772,135.010925 z"/>
  <path fill="#A7BFA5" opacity="1.000000" stroke="none" d=" M86.970985,141.605072 C87.309341,143.740234 87.595818,145.550827 87.876572,147.761505 C87.870857,148.161575 87.388840,148.196304 87.149704,148.157837 C86.035568,146.964325 85.160561,145.809311 84.143372,144.381073 C84.308533,143.031372 84.615875,141.954880 84.912094,140.544327 C85.573685,140.567017 86.246399,140.923767 86.970985,141.605072 z"/>
  <path fill="#5D8A42" opacity="1.000000" stroke="none" d=" M94.370705,134.989243 C93.998466,133.609467 93.997635,132.224045 93.994278,130.423218 C94.903107,130.482468 95.814453,130.957123 96.867004,131.723846 C96.252846,133.005127 95.497475,133.994370 94.370705,134.989243 z"/>
  <path fill="#B1C9A9" opacity="1.000000" stroke="none" d=" M118.092010,115.742119 C117.725723,116.048470 117.517258,116.027824 116.993668,115.983521 C116.929138,114.486961 117.179726,113.014069 117.672951,111.258148 C118.027000,112.455116 118.138420,113.935127 118.092010,115.742119 z"/>
</svg>