<?xml version="1.0" encoding="utf-8"?>
<svg version="1.1" id="Layer_1" x="0px" y="0px" width="100%" viewBox="0 0 512 512" enable-background="new 0 0 512 512" xmlns="http://www.w3.org/2000/svg">
  <path fill="#25A162" opacity="1.000000" stroke="none" d=" M513.000000,225.000000 C513.000000,246.020889 513.000000,267.041779 512.584351,288.440308 C511.784576,289.658813 511.201569,290.464996 511.047729,291.346130 C509.778229,298.616730 508.905731,305.971252 507.317841,313.169067 C501.252411,340.663483 490.851562,366.421478 476.208771,390.514496 C461.120819,415.339996 442.119934,436.825439 419.915649,455.298859 C401.664948,470.483002 381.542572,482.964020 359.518829,492.244629 C339.625916,500.627350 319.276001,507.193268 297.811432,510.107758 C294.798920,510.516785 291.933502,512.009094 289.000000,513.000000 C267.979095,513.000000 246.958206,513.000000 225.562225,512.588196 C224.682648,511.812439 224.221558,511.225342 223.667282,511.117584 C212.942856,509.032471 202.108963,507.414490 191.496918,504.869293 C174.302368,500.745270 157.885803,494.344421 142.422058,485.971436 C142.810181,483.659637 142.977585,481.675262 142.983795,479.690338 C143.052948,457.597565 143.097168,435.504669 143.493225,413.552429 C148.687943,415.867157 153.392166,418.478516 158.409912,420.147034 C202.732651,434.885498 247.660416,436.652496 292.480133,423.562988 C322.994568,414.651337 345.855194,395.435333 358.798004,365.795135 C367.928436,344.885620 370.268219,322.832428 368.078308,300.269745 C364.314178,261.488159 344.556610,234.156647 308.630005,219.025116 C283.698822,208.524628 257.444855,208.058075 231.021774,210.613007 C222.468338,211.440048 213.993744,213.082764 204.951981,214.431595 C205.050385,212.192963 205.056961,210.402878 205.217987,208.626801 C207.502792,183.426178 209.894257,158.234695 212.020004,133.020752 C212.351990,129.082916 213.791992,128.162247 217.531891,128.173920 C257.840576,128.299500 298.149811,128.252121 338.458893,128.252029 C340.374786,128.252029 342.290649,128.252029 344.241486,128.252029 C344.241486,111.125755 344.241486,94.823723 344.270874,78.021042 C344.383301,59.765450 344.449768,42.010391 344.568359,24.255680 C344.584869,21.784538 344.858246,19.315115 345.398560,16.906975 C346.281036,17.019587 346.816925,16.965727 347.268768,17.135540 C377.952759,28.667299 405.492554,45.452641 429.788910,67.390015 C448.282440,84.088028 464.164886,103.188560 476.789154,124.621422 C494.712433,155.050629 506.792877,187.726318 511.096161,223.019012 C511.184784,223.745911 512.341553,224.342560 513.000000,225.000000 z"/>
  <path fill="#DC524A" opacity="1.000000" stroke="none" d=" M143.148117,413.411835 C143.097168,435.504669 143.052948,457.597565 142.983795,479.690338 C142.977585,481.675262 142.810181,483.659637 142.060638,485.852417 C136.570740,483.368073 131.726669,480.695496 126.906815,477.979858 C100.460762,463.079437 78.136345,443.154358 58.777969,420.078430 C44.082981,402.561401 32.253490,383.023193 22.946466,362.004944 C12.910825,339.341217 5.891770,315.887268 2.919353,291.246033 C2.821162,290.432007 1.663691,289.745789 0.999998,289.000000 C1.000000,267.645782 1.000000,246.291550 1.392504,224.667999 C2.180146,223.722565 2.779800,223.091492 2.940127,222.363647 C5.944739,208.723145 8.222613,194.881241 12.000808,181.461044 C19.910179,153.366898 33.429558,127.995956 50.725769,104.476021 C64.627419,85.572121 80.876633,68.954865 99.180489,54.549053 C118.224915,39.560383 139.113022,27.339384 161.863174,18.593569 C181.546280,11.026813 201.664551,5.157968 222.728195,2.917475 C223.544220,2.830677 224.245346,1.663666 225.000000,1.000000 C245.354233,1.000000 265.708466,1.000000 286.338501,1.396777 C290.036865,2.525207 293.432648,3.432519 296.886505,3.958645 C313.410126,6.475675 329.481659,10.640676 345.012726,16.844898 C344.858246,19.315115 344.584869,21.784538 344.568359,24.255680 C344.449768,42.010391 344.383301,59.765450 343.784790,77.987167 C283.341949,78.453926 223.414658,78.453926 163.427780,78.453926 C163.224915,80.062836 163.062515,81.036507 162.984299,82.016891 C160.733231,110.236519 158.479813,138.455963 156.249725,166.677246 C154.203293,192.574234 152.244400,218.478424 150.076675,244.365189 C149.798370,247.688583 150.761276,249.474915 153.653458,251.045227 C159.792145,254.378235 165.637787,258.252350 171.788132,261.561615 C173.659088,262.568298 176.210022,263.023346 178.318207,262.743134 C184.577240,261.911102 190.754807,260.488342 196.992950,259.473053 C218.645111,255.949188 240.341217,254.354721 262.029785,259.051147 C286.357788,264.319122 304.407684,276.765808 309.455841,302.757904 C310.868317,310.030487 311.202240,317.695068 310.777679,325.108093 C309.442017,348.431519 299.499817,366.586334 277.615417,376.890747 C266.281952,382.227173 254.161591,384.467194 241.790085,384.869965 C208.238861,385.962311 176.298950,379.281403 146.229187,364.136810 C145.297775,363.667694 144.239929,363.449615 143.148117,363.083344 C143.148117,380.145386 143.148117,396.778625 143.148117,413.411835 z"/>
  <path fill="#FEFEFE" opacity="1.000000" stroke="none" d=" M143.493225,413.552429 C143.148117,396.778625 143.148117,380.145386 143.148117,363.083344 C144.239929,363.449615 145.297775,363.667694 146.229187,364.136810 C176.298950,379.281403 208.238861,385.962311 241.790085,384.869965 C254.161591,384.467194 266.281952,382.227173 277.615417,376.890747 C299.499817,366.586334 309.442017,348.431519 310.777679,325.108093 C311.202240,317.695068 310.868317,310.030487 309.455841,302.757904 C304.407684,276.765808 286.357788,264.319122 262.029785,259.051147 C240.341217,254.354721 218.645111,255.949188 196.992950,259.473053 C190.754807,260.488342 184.577240,261.911102 178.318207,262.743134 C176.210022,263.023346 173.659088,262.568298 171.788132,261.561615 C165.637787,258.252350 159.792145,254.378235 153.653458,251.045227 C150.761276,249.474915 149.798370,247.688583 150.076675,244.365189 C152.244400,218.478424 154.203293,192.574234 156.249725,166.677246 C158.479813,138.455963 160.733231,110.236519 162.984299,82.016891 C163.062515,81.036507 163.224915,80.062836 163.427780,78.453926 C223.414658,78.453926 283.341949,78.453926 343.755371,78.487808 C344.241486,94.823723 344.241486,111.125755 344.241486,128.252029 C342.290649,128.252029 340.374786,128.252029 338.458893,128.252029 C298.149811,128.252121 257.840576,128.299500 217.531891,128.173920 C213.791992,128.162247 212.351990,129.082916 212.020004,133.020752 C209.894257,158.234695 207.502792,183.426178 205.217987,208.626801 C205.056961,210.402878 205.050385,212.192963 204.951981,214.431595 C213.993744,213.082764 222.468338,211.440048 231.021774,210.613007 C257.444855,208.058075 283.698822,208.524628 308.630005,219.025116 C344.556610,234.156647 364.314178,261.488159 368.078308,300.269745 C370.268219,322.832428 367.928436,344.885620 358.798004,365.795135 C345.855194,395.435333 322.994568,414.651337 292.480133,423.562988 C247.660416,436.652496 202.732651,434.885498 158.409912,420.147034 C153.392166,418.478516 148.687943,415.867157 143.493225,413.552429 z"/>
</svg>