<?xml version="1.0" encoding="utf-8"?>
<!-- Generator: Adobe Illustrator 23.0.3, SVG Export Plug-In . SVG Version: 6.00 Build 0)  -->
<svg version="1.1" id="Layer_1" xmlns="http://www.w3.org/2000/svg" xmlns:xlink="http://www.w3.org/1999/xlink" x="0px" y="0px"
	 viewBox="0 0 195.4 38.4" style="enable-background:new 0 0 195.4 38.4;" xml:space="preserve">
<style type="text/css">
	.st0{fill:#12284A;}
	.st1{fill:#FBB61C;}
</style>
<title>kubernetes.io-logos2</title>
<path class="st0" d="M61.6,33.2c0.7-1.6,1.5-3.1,2.2-4.6c0.5-1.1,1-2.2,1.6-3.3c0.3-0.6,0.5-1.2,0.4-1.9c0-0.3,0.1-0.4,0.4-0.4
	c1.6,0,3.2,0,4.8,0c0.3,0,0.4,0.1,0.4,0.4c0,1,0,1-1,1c-1,0-1,0-1,1c0,3.6,0,7.2,0,10.8c0,0.4,0.1,0.5,0.4,0.4c0.4,0,0.9,0,1.3,0
	c0.2,0,0.3,0.1,0.3,0.3c0,1.1,0.1,1.1-1.1,1.1c-1.9,0-3.7,0-5.6,0c-0.3,0-0.5,0-0.5-0.4c0-1,0-1,1-1c1.1,0,1.1,0,1.1-1.1
	c0-2.6,0-5.2,0-7.8c0-0.2,0-0.3,0-0.5l-0.1,0c-0.3,0.7-0.6,1.3-1,2c-1.3,2.8-2.6,5.6-4,8.4c-0.1,0.2-0.1,0.4-0.4,0.4
	c-0.3,0-0.4-0.2-0.5-0.4c-1.5-3.2-3-6.4-4.6-9.5c-0.1-0.1-0.1-0.3-0.2-0.4c-0.2,0.1-0.1,0.2-0.1,0.3c0,2.7,0,5.5,0,8.2
	c0,0.4,0.1,0.5,0.4,0.4c0.4,0,0.8,0,1.1,0c0.1,0,0.2,0,0.2,0c0.5,0.2,0.1,0.6,0.2,1c0,0.1,0.1,0.4-0.2,0.4c-1.8,0-3.5,0-5.3,0
	c-0.5,0-0.1-0.6-0.2-0.9c0-0.1-0.2-0.5,0.2-0.5c0.4,0,0.9,0,1.3,0c0.4,0,0.4-0.1,0.4-0.4c0-3.2,0-6.5,0-9.7c0-0.6,0-1.1,0-1.7
	c0-0.3-0.1-0.4-0.4-0.4c-0.5,0-0.9,0-1.4,0c-0.1,0-0.3,0.1-0.3-0.1c0-0.4,0-0.8,0-1.2c0-0.2,0.2-0.1,0.3-0.1c1.6,0,3.3,0,4.9,0
	c0.2,0,0.3,0.1,0.3,0.3c-0.1,0.9,0.2,1.7,0.6,2.4c1.2,2.4,2.3,4.8,3.5,7.2C61.5,33,61.6,33.1,61.6,33.2z"/>
<path class="st1" d="M36.6,10c0,0.3,0,0.6,0,0.9c0.1,1,0.9,1.7,1.9,1.8c1.1,0.2,2.2-0.3,2.7-1.3c0.8-1.6,0.2-3.5-1.2-4.5
	c-1.1-0.7-2.4-0.9-3.7-0.7c-2.8,0.4-5.4,2-6.9,4.4c-1.7,2.5-3,5.3-3.6,8.3c-0.8,3.4-1.2,6.8-1.2,10.3c0,0.2,0,0.5-0.1,0.7
	c-0.2-0.5-0.3-1.1-0.4-1.6c-0.5-2.6-0.7-5.2-0.6-7.8c0-3.9,1.1-7.7,3.1-11c1.9-3.2,5-5.4,8.6-6.2C37.6,2.8,40,3.1,42,4.2
	c2.9,1.7,3.8,5.4,2.1,8.2c-0.1,0.1-0.2,0.2-0.2,0.4c-1.4,1.9-3.9,2.6-6.1,1.8c-1.5-0.5-2.3-2-2-3.6C35.9,10.6,36.2,10.2,36.6,10z"/>
<path class="st1" d="M8.2,12.1c0,0.9-0.5,1.7-1.3,2.1c-2,1.2-4.6,0.7-5.9-1.3c-1.9-2.6-1.2-6.3,1.4-8.2C2.9,4.4,3.5,4.2,4,4
	c2.5-0.9,5.2-0.8,7.6,0.4c2.9,1.4,5.2,3.6,6.8,6.3c2,3.2,3.2,6.9,3.5,10.7c0.1,2.8-0.2,5.6-1,8.2c0,0.1,0,0.3-0.2,0.4
	c0-0.5,0.1-1,0.1-1.4c0.4-6.2-1.5-12.4-5.4-17.3c-1.5-2-3.6-3.5-6-4.3c-1.2-0.4-2.5-0.4-3.7,0c-1.7,0.5-2.6,2.3-2.1,4
	c0.1,0.3,0.2,0.6,0.4,0.9c0.9,1.3,2.6,1.6,3.8,0.7c0.1-0.1,0.2-0.2,0.3-0.2C8.1,12.2,8.1,12.2,8.2,12.1L8.2,12.1z"/>
<path class="st0" d="M65.1,13.1v-0.5c0-2.7,0-5.4,0-8.1c0-0.4-0.1-0.6-0.5-0.6c-0.4,0-0.9,0-1.3,0c-0.1,0-0.3,0-0.3-0.2
	c0-0.4,0-0.7,0-1.1c0-0.2,0.2-0.2,0.3-0.2c1.8,0,3.6-0.1,5.4,0c0.6,0,0.2,0.7,0.3,1c0.1,0.2,0,0.4-0.3,0.4c-0.5,0-0.9,0-1.4,0
	c-0.3,0-0.4,0.1-0.3,0.3c0,0.1,0,0.2,0,0.3c0,4.1,0,8.3,0,12.4c0,0.4-0.1,0.5-0.5,0.5c-0.7,0.1-1.4-0.2-1.9-0.8
	c-2.8-3.1-5.7-6.1-8.5-9.2c-0.1-0.1-0.2-0.2-0.3-0.3c-0.2,0.1-0.1,0.3-0.1,0.4c0,2.7,0,5.4,0,8.1c0,0.3,0.1,0.5,0.4,0.4
	c0.4,0,0.9,0,1.3,0c0.3,0,0.4,0.1,0.4,0.4c0,1,0,1-1,1c-1.5,0-2.9,0-4.4,0c-0.3,0-0.4-0.1-0.4-0.4c0-1,0-1,1-1c1,0,1,0,1-1
	c0-3.5,0-7.1,0-10.6c0-0.5-0.1-0.6-0.6-0.5c-0.2,0-0.4,0-0.6,0c-0.3,0-0.7,0.1-0.8-0.1c-0.1-0.4-0.1-0.8-0.1-1.2
	c0-0.2,0.1-0.1,0.2-0.1c1.4,0,2.8,0,4.3,0c0.2,0,0.3,0.1,0.3,0.3c-0.1,0.8,0.2,1.6,0.9,2.1c2.4,2.6,4.8,5.2,7.2,7.8
	C64.8,12.8,64.9,12.9,65.1,13.1z"/>
<path class="st0" d="M105.6,8c0.5-0.4,1.1-0.7,1.7-1c0.8-0.5,1.8-0.6,2.7-0.5c1.5,0.3,2.5,1.7,2.3,3.2c0,2.1,0,4.1,0,6.2
	c0,0.4,0.1,0.5,0.5,0.5c0.3,0,0.7,0,1,0c0.3,0,0.4,0.1,0.4,0.4c0,0.8,0,0.8-0.8,0.8c-1.7,0-3.4,0-5.1,0c-0.4,0-0.5-0.1-0.4-0.4
	c0-0.1,0-0.3,0-0.4c0-0.2,0-0.3,0.3-0.3c0.3,0,0.6,0,0.9,0c0.3,0,0.3-0.1,0.3-0.3c0-2,0-4,0-6c0.1-0.9-0.5-1.6-1.4-1.7
	c-0.3,0-0.6,0-0.8,0.1c-0.1,0-0.1,0-0.2,0c-1.4,0.4-1.4,0.5-1.4,2c0,1.8,0,3.6,0,5.4c0,0.4,0.1,0.6,0.5,0.5c0.1,0,0.2,0,0.2,0
	c0.8,0,0.8,0,0.8,0.8c0,0.2-0.1,0.3-0.3,0.3c-1.9,0-3.9,0-5.8,0c-0.2,0-0.3-0.1-0.3-0.3c0-0.9-0.1-0.9,0.8-0.9c1.1,0,1.1,0,1.1-1.1
	c0-4.2,0-8.4,0-12.6c0-0.4-0.1-0.5-0.5-0.5c-0.2,0-0.4,0-0.6,0c-0.8,0-0.8,0-0.8-0.8c0-0.3,0.1-0.3,0.3-0.3c1.4,0,2.7,0,4.1,0
	c0.3,0,0.4,0.1,0.4,0.4c0,2,0,4,0,6L105.6,8z"/>
<path class="st0" d="M122.6,10.3c-0.9,2.4-1.8,4.7-2.7,7.1c-0.1,0.2-0.1,0.4-0.4,0.4c-0.3,0-0.3-0.2-0.4-0.4c-1.4-3-2.8-6-4.1-9
	c-0.2-0.4-0.4-0.6-0.8-0.5c0,0,0,0,0,0c-0.9,0-0.9,0-0.8-0.9c0-0.2,0.1-0.2,0.3-0.2c1.8,0,3.6,0,5.4,0c0.2,0,0.3,0.1,0.3,0.3
	c0.1,0.9,0.1,0.9-0.8,0.9c-0.6,0-0.6,0-0.4,0.6c0.6,1.4,1.3,2.8,1.9,4.3c0.1,0.1,0.1,0.3,0.2,0.5c0.6-1.7,1.2-3.4,1.9-5.1
	c0.1-0.3,0-0.3-0.2-0.3c-0.2,0-0.3,0-0.5,0c-0.2,0-0.6,0.1-0.7-0.1c-0.2-0.3,0-0.6-0.1-0.9c0-0.2,0.1-0.1,0.2-0.1c1.7,0,3.3,0,5,0
	c0.2,0,0.2,0,0.3,0.2c0.1,0.9,0.1,0.9-0.8,0.9c-0.2,0-0.3,0-0.5,0l2.4,5.3c0.3-0.9,0.6-1.6,0.9-2.3c0.3-0.9,0.6-1.7,1-2.6
	c0.1-0.4,0-0.4-0.3-0.4c-0.2,0-0.3,0-0.5,0c-0.7,0-0.6,0-0.7-0.6c0-0.4,0.1-0.5,0.5-0.5c1.2,0,2.3,0,3.5,0c0.3,0,0.4,0.1,0.4,0.4
	c0,0.8,0,0.8-0.8,0.8c-0.6,0-0.8,0.2-1,0.7c-1.1,2.9-2.2,5.8-3.3,8.7c-0.1,0.2-0.1,0.4-0.4,0.4c-0.3,0-0.4-0.2-0.5-0.4
	c-1-2.3-2.1-4.5-3.1-6.8C122.8,10.5,122.8,10.3,122.6,10.3z"/>
<path class="st0" d="M186.7,8.1c0.7-0.5,1.4-0.9,2.1-1.2c0.7-0.3,1.4-0.4,2.2-0.3c1.4,0.1,2.5,1.4,2.5,2.8c0,2.1,0,4.3,0,6.4
	c0,0.5,0.1,0.7,0.6,0.6c0.2,0,0.4,0,0.6,0c0.2,0,0.6-0.1,0.6,0.1c0.1,0.3,0.1,0.6,0,0.9c0,0.2-0.2,0.1-0.3,0.1c-1.9,0-3.8,0-5.7,0
	c-0.2,0-0.3-0.1-0.3-0.3c0-0.9,0-0.9,0.8-0.9c0.8,0,0.8,0,0.8-0.8c0-1.8,0-3.6,0-5.4c0.2-0.9-0.4-1.7-1.3-1.9
	c-0.3-0.1-0.6,0-0.9,0.1c-0.5,0.1-1,0.4-1.4,0.6c-0.1,0.1-0.2,0.2-0.2,0.4c0,2.2,0,4.4,0,6.6c0,0.3,0.1,0.3,0.3,0.3
	c0.2,0,0.4,0,0.6,0c0.6,0,0.6,0,0.6,0.6c0,0.4-0.1,0.5-0.5,0.5c-1.8,0-3.6,0-5.4,0c-0.3,0-0.5-0.1-0.4-0.4c0-0.1,0-0.3,0-0.4
	c0-0.3,0.1-0.4,0.4-0.4c0.4,0,0.8,0,1.2,0c0.2,0,0.3,0,0.3-0.3c0-2.6,0-5.2,0-7.8c0-0.2-0.1-0.3-0.3-0.3c-0.4,0-0.8,0-1.2,0
	c-0.3,0-0.4,0-0.4-0.3c0-0.8,0-0.8,0.8-0.8c1.2,0,2.3,0,3.5,0c0.4,0,0.5,0.1,0.4,0.5C186.7,7.5,186.7,7.8,186.7,8.1z"/>
<path class="st0" d="M102.3,37.1c-0.9,0.6-1.9,1.1-3,1.2c-0.6,0.1-1.2,0.1-1.7-0.1c-1-0.2-1.8-1.1-1.9-2.2c0-0.5-0.1-0.9-0.1-1.4
	c0-1.9,0-3.8,0-5.8c0-0.3-0.1-0.4-0.4-0.4c-0.4,0-0.8,0-1.1,0c-0.2,0-0.3-0.1-0.3-0.3c0-0.8,0-0.8,0.8-0.8c1.1,0,2.2,0,3.3,0
	c0.7,0,0.7,0,0.7,0.7c0,2.3,0,4.5,0,6.8c0,0.2,0,0.4,0,0.6c0,0.8,0.7,1.5,1.5,1.4c0.1,0,0.3,0,0.4-0.1c0.6-0.2,1.2-0.4,1.8-0.8
	c0.2-0.1,0.2-0.2,0.2-0.4c0-2.3,0-4.5,0-6.8c0-0.3-0.1-0.3-0.3-0.3c-0.4,0-0.8,0-1.2,0c-0.3,0-0.3-0.1-0.3-0.3c0-0.8,0-0.8,0.8-0.8
	c1.2,0,2.3,0,3.5,0c0.4,0,0.5,0.1,0.5,0.5c0,2.9,0,5.7,0,8.6c0,0.4,0.1,0.5,0.5,0.5c0.3,0,0.7,0,1,0c0.2,0,0.3,0.1,0.3,0.3
	c0,0.8,0,0.8-0.8,0.8c-1.1,0-2.3,0-3.4,0c-0.4,0-0.7-0.1-0.6-0.6C102.3,37.4,102.3,37.2,102.3,37.1z"/>
<path class="st0" d="M80.3,37c-0.7,0.4-1.4,0.8-2.1,1c-0.9,0.3-1.8,0.3-2.7,0.1c-1.2-0.3-2.1-1.5-1.9-2.7c0-2.2,0-4.4,0-6.5
	c0-0.4-0.1-0.5-0.5-0.5c-0.2,0-0.4,0-0.7,0c-0.8,0-0.9-0.1-0.8-1c0-0.2,0.1-0.2,0.3-0.2c1.4,0,2.8,0,4.3,0c0.4,0,0.2,0.3,0.2,0.4
	c0,2.3,0,4.6,0,7c0,0.3,0,0.7,0.1,1c0.2,0.8,0.9,1.2,1.7,1.1c0,0,0,0,0.1,0c0.7-0.2,1.3-0.4,1.9-0.8c0.2-0.1,0.2-0.2,0.2-0.4
	c0-2.3,0-4.6,0-6.9c0-0.2-0.1-0.3-0.3-0.3c-0.4,0-0.8,0-1.2,0c-0.3,0-0.3-0.1-0.3-0.3c0-0.8,0-0.8,0.8-0.8c1.2,0,2.4,0,3.6,0
	c0.3,0,0.4,0.1,0.4,0.4c0,2.9,0,5.7,0,8.6c0,0.4,0.1,0.6,0.5,0.5c0.2,0,0.5,0,0.7,0c0.6,0,0.6,0,0.6,0.6c0,0.4-0.1,0.6-0.5,0.5
	c-1.2,0-2.5,0-3.7,0c-0.4,0-0.6-0.1-0.5-0.5C80.3,37.4,80.3,37.2,80.3,37z"/>
<path class="st0" d="M75.1,6.5c3.2,0,5.4,1.7,6,4.5c0.7,3-1.2,6-4.2,6.7c-0.3,0.1-0.7,0.1-1,0.1c-1.1,0.1-2.2,0-3.2-0.4
	c-2.3-0.9-3.7-3.2-3.5-5.7c0.2-2.6,2.1-4.7,4.6-5.1C74.3,6.6,74.7,6.5,75.1,6.5z M72.4,12.2c0,1,0.2,2,0.6,3
	c0.3,0.7,0.9,1.2,1.6,1.4c1.3,0.4,2.6-0.4,3-1.6c0,0,0,0,0,0c0.7-1.8,0.7-3.8,0-5.6c-0.3-1-1.2-1.7-2.3-1.7c-1.1,0-2,0.7-2.3,1.7
	C72.6,10.3,72.4,11.2,72.4,12.2z"/>
<path class="st1" d="M39.6,0.6c-1,0.5-2,0.8-3.1,1c-2.9,0.6-5.8,1.1-8.7,1.3c-3.4,0.3-6.9,0.5-10.4,0.4c-3,0-5.9-0.4-8.8-1.1
	C8,2.1,7.5,1.9,7,1.7C6.6,1.5,6.4,1,6.5,0.5C6.6,0.2,7-0.1,7.5,0c1.1,0.1,2.2,0.3,3.2,0.5c1.6,0.2,3.2,0.4,4.8,0.4
	c4.6,0.2,9.3,0.2,13.9,0.1c3.2-0.1,6.5-0.2,9.7-0.4C39.3,0.6,39.4,0.6,39.6,0.6z"/>
<path class="st0" d="M108.4,29.7c-0.3-1.1-0.3-0.8,0.4-1.4c1.2-0.9,2.6-1.4,4.1-1.3c1.7,0.1,3,1.4,3.1,3.1c0.1,1.6,0,3.2,0,4.8
	c0,0.2,0,0.4,0,0.6c0,0.7,0.6,1.2,1.3,1.2c0.1,0,0.2,0,0.3-0.1c0.1,0,0.2-0.1,0.4-0.1c0,0,0,0.1,0,0.1c0,1.1,0,1.1-1,1.4
	c-0.6,0.2-1.2,0.3-1.8,0.3c-0.8-0.1-1.5-0.6-1.9-1.3c-0.7,0.5-1.5,1-2.3,1.2c-1.4,0.4-2.8-0.4-3.1-1.8c-0.1-0.2-0.1-0.4-0.1-0.6
	c-0.3-1.3,0.6-2.6,1.9-2.9c1-0.3,2-0.6,3.1-0.8c0.3-0.1,0.4-0.2,0.4-0.5c0-0.3,0-0.6,0-0.9c0.1-1-0.6-1.9-1.6-2
	c-0.3,0-0.6,0-0.8,0.1C109.9,28.9,109.1,29.3,108.4,29.7z M113.2,34.6c0-0.4,0-0.7,0-1.1c0-0.2-0.1-0.2-0.3-0.2
	c-0.6,0.1-1.2,0.3-1.8,0.7c-0.6,0.4-0.9,1.2-0.6,1.8c0.2,0.5,0.7,0.8,1.3,0.7c0.9-0.2,1.3-0.6,1.3-1.4
	C113.2,34.9,113.2,34.8,113.2,34.6z"/>
<path class="st0" d="M170.6,15.3c0,0.1,0,0.2,0,0.3c0.1,0.9-0.5,1.3-1.3,1.6c-1.5,0.6-3.2,0.7-4.8,0.3c-2-0.5-3.5-2.3-3.8-4.3
	c-0.2-1-0.2-2.1,0.1-3.1c0.6-2.6,3.2-4.1,5.8-3.5c1.7,0.4,3,1.7,3.4,3.3c0.1,0.4,0.2,0.7,0.3,1.1c0.1,0.3,0,0.4-0.3,0.4
	c-2,0-3.9,0-5.9,0c-0.4,0-0.5,0.1-0.4,0.5c0,0.6,0.2,1.2,0.3,1.8c0.4,1.9,2.2,3.1,4.1,2.7c0.2,0,0.4-0.1,0.5-0.2
	C169.3,16,170,15.7,170.6,15.3z M165.5,10.3c0.5,0,1.1,0,1.6,0c0.1,0,0.3,0,0.3-0.2c-0.1-0.8-0.4-1.5-0.9-2c-0.6-0.6-1.5-0.6-2,0
	c-0.1,0.1-0.1,0.1-0.2,0.2c-0.3,0.5-0.5,1.1-0.6,1.8c0,0.3,0.1,0.2,0.3,0.2C164.5,10.3,165,10.3,165.5,10.3z"/>
<path class="st0" d="M142.3,15.3c-0.1,0.4-0.1,0.8-0.2,1.2c0,0.1-0.1,0.2-0.2,0.3c-2,1.2-4.5,1.4-6.6,0.4c-1.7-0.8-2.9-2.5-2.9-4.4
	c-0.1-1,0-2.1,0.3-3c0.9-2.5,3.6-3.8,6.1-3c1.4,0.5,2.5,1.6,3,3c0.1,0.4,0.2,0.8,0.3,1.3c0.1,0.3,0,0.4-0.3,0.4c-1.9,0-3.8,0-5.6,0
	c-0.7,0-0.7,0-0.7,0.7c0,0.5,0.1,1,0.3,1.5c0.4,1.9,2.2,3,4.1,2.6c0.1,0,0.3-0.1,0.4-0.1C141,16.1,141.7,15.7,142.3,15.3z
	 M137.2,10.3c0.5,0,1.1,0,1.6,0c0.2,0,0.3,0,0.3-0.2c-0.1-0.7-0.4-1.3-0.8-1.9c-0.5-0.6-1.4-0.7-2-0.2c-0.1,0.1-0.2,0.2-0.3,0.3
	c-0.3,0.5-0.5,1.1-0.6,1.7c0,0.2,0,0.3,0.3,0.3C136.2,10.3,136.7,10.3,137.2,10.3z"/>
<path class="st0" d="M123.7,29.2c0,2.4,0,4.8,0,7.2c0,0.3,0.1,0.5,0.4,0.5c0.4,0,0.8,0,1.1,0c0.2,0,0.3,0.1,0.3,0.3
	c0.1,0.9,0.1,0.9-0.8,0.9c-1.8,0-3.5,0-5.3,0c-0.3,0-0.5-0.1-0.4-0.4c0-0.1,0-0.3,0-0.4c0-0.3,0.1-0.4,0.3-0.4c0.4,0,0.8,0,1.2,0
	c0.2,0,0.3-0.1,0.3-0.3c0-0.1,0-0.2,0-0.2c0-4.4,0-8.8,0-13.2c0-0.4-0.1-0.5-0.5-0.5c-0.3,0-0.5,0-0.8,0c-0.4,0.1-0.6-0.1-0.6-0.5
	c0-0.6,0-0.6,0.6-0.6c1.2,0,2.5,0,3.7,0c0.3,0,0.4,0.1,0.4,0.4C123.7,24.4,123.7,26.8,123.7,29.2z"/>
<path class="st0" d="M145,17.2c-0.1,0.2,0,0.5-0.4,0.5c-0.6,0-0.6,0-0.6-0.6c0-0.8,0-1.6,0-2.4c0-0.1-0.1-0.4,0.2-0.4
	c0.2,0,0.5-0.1,0.6,0.2c0.1,0.4,0.4,0.8,0.7,1.2c0.6,0.7,1.5,1,2.4,0.8c0.6-0.1,1-0.7,0.9-1.3c0-0.2-0.2-0.5-0.4-0.6
	c-0.4-0.4-0.9-0.7-1.4-1c-0.7-0.4-1.4-0.9-2-1.4c-1.1-0.8-1.4-2.3-1-3.5c0.5-1.3,1.7-2.2,3-2.2c0.8-0.1,1.5,0.1,2.2,0.4
	c0.2,0.1,0.3,0.2,0.4-0.1c0.1-0.5,0.5-0.3,0.7-0.3c0.3,0,0.2,0.3,0.2,0.4c0,0.7,0,1.4,0,2c0,0.1,0.1,0.4-0.2,0.4
	c-0.2,0-0.6,0.2-0.7-0.2c-0.1-0.2-0.2-0.4-0.3-0.6c-0.4-0.9-1.5-1.3-2.4-0.9c-0.5,0.2-0.8,0.7-0.7,1.3c0,0.1,0.1,0.2,0.2,0.3
	c0.3,0.4,0.6,0.7,1,0.9c0.7,0.5,1.5,0.8,2.2,1.3c1.6,1,2.1,3,1.1,4.6c-0.6,1-1.7,1.6-2.9,1.6C147,17.9,146,17.7,145,17.2z"/>
<path class="st0" d="M179.8,10.6c-0.2-0.4-0.4-0.7-0.7-1c-0.5-0.6-1.4-0.6-1.9-0.1c0,0-0.1,0.1-0.1,0.1c-0.4,0.3-0.6,0.8-0.6,1.3
	c0,1.7,0,3.4,0,5.2c0,0.3,0.1,0.4,0.4,0.4c0.4,0,0.8,0,1.1,0c0.2,0,0.3,0.1,0.3,0.3c0,0.8,0,0.8-0.8,0.8c-1.8,0-3.6,0-5.4,0
	c-0.4,0-0.5-0.1-0.4-0.4c0-0.1,0-0.3,0-0.4c0-0.2,0.1-0.3,0.3-0.3c0.4,0,0.9,0,1.3,0c0.3,0,0.3-0.1,0.3-0.3c0-2.6,0-5.2,0-7.8
	c0-0.3-0.1-0.3-0.4-0.3c-0.3,0-0.7,0-1,0c-0.2,0-0.5,0.1-0.5-0.1c0-0.3,0-0.7,0-1c0-0.1,0.2-0.1,0.2-0.1c1.4,0,2.8,0,4.2,0
	c0.2,0,0.3,0.1,0.3,0.3c0,0.5,0,0.9,0,1.4c0.2,0,0.2-0.2,0.3-0.3c0.4-0.6,0.8-1,1.4-1.4c0.9-0.5,2.1-0.2,2.6,0.7
	c0,0.1,0.1,0.1,0.1,0.2C180.7,8.7,180.3,9.7,179.8,10.6z"/>
<path class="st0" d="M90.2,10.6c-0.3-0.4-0.5-0.7-0.7-1C89,9,88.1,8.9,87.5,9.4c-0.1,0-0.1,0.1-0.2,0.2c-0.4,0.3-0.6,0.8-0.6,1.3
	c0,1.7,0,3.4,0,5.1c0,0.4,0.1,0.5,0.5,0.5c0.2,0,0.5,0,0.8,0c0.5-0.1,0.6,0.1,0.6,0.6c0,0.5-0.1,0.6-0.6,0.6c-1.9,0-3.7,0-5.6,0
	c-0.3,0-0.5-0.1-0.4-0.4c0-0.1,0-0.3,0-0.4c0-0.2,0.1-0.3,0.3-0.3c0.4,0,0.9,0,1.3,0c0.2,0,0.3-0.1,0.3-0.3c0-2.6,0-5.2,0-7.9
	C83.9,8,83.8,8,83.6,8c-0.4,0-0.8,0-1.2,0c-0.2,0-0.3,0-0.3-0.3c0-0.8,0-0.8,0.8-0.8c1.2,0,2.4,0,3.6,0c0.3,0,0.4,0.1,0.4,0.4
	c0,0.4,0,0.9,0,1.3c0.3-0.4,0.7-0.9,1.1-1.2c0.6-0.8,1.8-1,2.7-0.4C90.8,7,90.9,7.2,91,7.3c0.1,0.1,0.2,0.2,0.2,0.4
	C91,8.7,90.7,9.7,90.2,10.6z"/>
<path class="st0" d="M85.3,28.8l4.5-4.3c0,0.9,0,1.7,0,2.5c0,0.4,0.1,0.4,0.5,0.4c0.7,0,1.5,0,2.2,0c0.3,0,0.3,0.1,0.3,0.3
	c0,1.1,0,1.1-1,1.1c-0.6,0-1.1,0-1.7,0c-0.2,0-0.3,0.1-0.3,0.3c0,2,0,4,0,6.1c0,0.4,0.1,0.9,0.3,1.3c0.2,0.6,0.9,0.9,1.6,0.7
	c0.1,0,0.1,0,0.2-0.1c0.3-0.2,0.6-0.3,0.8-0.5c0.2-0.1,0.4-0.2,0.6,0c0.2,0.2,0.1,0.4,0,0.6c-0.3,0.5-0.7,0.8-1.2,1
	c-1,0.4-2,0.4-3,0.2c-1.2-0.3-2.1-1.5-2-2.7c-0.1-2.1-0.1-4.1,0-6.2c0-0.4-0.1-0.6-0.6-0.5C86,28.8,85.7,28.8,85.3,28.8z"/>
<path class="st1" d="M17.8,31c-0.1-0.8-0.1-1.6-0.2-2.4c-0.3-2.9-1.1-5.7-2.5-8.3c-0.4-0.8-1-1.4-1.6-2c-0.5-0.5-1.1-0.8-1.7-0.9
	c-1-0.3-2.1,0-2.7,0.8c-0.1,0.1-0.1,0.1-0.2,0.2c0,0.1-0.1,0.1-0.2,0.2c-0.8-1.3-0.4-2.9,0.8-3.7c0.1-0.1,0.2-0.1,0.4-0.2
	c1.6-0.7,3.4-0.5,4.7,0.7c1.4,1.2,2.4,2.7,2.9,4.4c1.2,3.5,1.4,7.4,0.5,11C18,30.8,18,31,17.8,31z"/>
<path class="st0" d="M152.2,8.2l4.5-4.3c0,0.8,0,1.5,0,2.3c0,0.6,0,0.6,0.6,0.6c0.7,0,1.4,0,2.1,0c0.2,0,0.3,0.1,0.3,0.3
	c0,1.1,0,1.1-1.1,1.1c-0.6,0-1.1,0-1.7,0c-0.3,0-0.3,0.1-0.3,0.3c0,2,0,4,0,6c0,0.4,0.1,0.9,0.3,1.3c0.2,0.6,0.9,1,1.6,0.8
	c0.1,0,0.2-0.1,0.2-0.1c0.3-0.2,0.5-0.3,0.8-0.5c0.2-0.1,0.4-0.2,0.6,0c0.2,0.2,0.1,0.4,0,0.6c-0.2,0.3-0.5,0.6-0.8,0.8
	c-1.2,0.6-2.5,0.7-3.8,0.3c-1.1-0.4-1.8-1.6-1.7-2.8c-0.1-2,0-4.1,0-6.1c0-0.4-0.1-0.5-0.5-0.5C153,8.3,152.6,8.2,152.2,8.2z"/>
<path class="st0" d="M91.9,8.2l4.5-4.3c0,0.9,0,1.7,0,2.5c0,0.3,0.1,0.4,0.4,0.4c0.8,0,1.5,0,2.3,0c0.2,0,0.3,0.1,0.3,0.3
	c0,1.1,0,1.1-1.1,1.1c-0.5,0-1.1,0-1.6,0c-0.2,0-0.3,0-0.3,0.3c0,2.1-0.1,4.3,0,6.4c0,0.2,0,0.4,0.1,0.6c0.1,0.7,0.7,1.3,1.5,1.2
	c0.3,0,0.6-0.2,0.8-0.4c0.2-0.1,0.4-0.3,0.6-0.4c0.1-0.1,0.3-0.1,0.4,0c0.1,0.1,0.1,0.3,0,0.4c-0.1,0.3-0.4,0.6-0.7,0.8
	c-1.2,0.8-2.8,0.9-4.1,0.3c-0.8-0.4-1.4-1.2-1.4-2.1c-0.1-0.4-0.1-0.9-0.1-1.3c0-1.8,0-3.5,0-5.3c0-0.5-0.1-0.6-0.5-0.5
	C92.6,8.3,92.3,8.2,91.9,8.2z"/>
<path class="st1" d="M36.7,18.6c-0.8-1.3-2.4-1.8-3.7-1.1c-1,0.5-1.9,1.2-2.4,2.2c-1.1,1.8-1.9,3.8-2.3,5.9
	c-0.4,1.7-0.6,3.4-0.7,5.1c0,0.1,0,0.2-0.1,0.3c-0.2-0.6-0.4-1.3-0.4-2c-0.5-3.5,0-7.1,1.4-10.4c0.6-1.5,1.6-2.8,3-3.7
	c1.3-0.8,2.8-0.9,4.2-0.2c1.3,0.6,1.9,2.2,1.3,3.6c0,0,0,0,0,0C36.9,18.4,36.8,18.5,36.7,18.6z"/>
<path class="st1" d="M14.7,32.4c-0.2-1.4-0.6-2.8-1.1-4.1C13,26.7,12.1,25.2,11,24c-0.7-0.7-1.5-1.2-2.5-1.4
	c-1.2-0.3-2.3,0.3-2.8,1.4c0,0.1-0.1,0.1-0.1,0.1c-0.5-0.6-0.6-1.3-0.4-2c0.3-1.3,1.6-2.2,2.9-2.2c1.8,0,3.4,0.9,4.4,2.3
	c1.3,1.8,2.1,3.9,2.4,6.1c0.2,1.2,0.2,2.5-0.1,3.7C14.8,32.2,14.8,32.4,14.7,32.4z"/>
<path class="st1" d="M30.5,32.5c-0.2-0.5-0.3-1.1-0.3-1.6c-0.1-2.9,0.7-5.7,2.2-8.1c0.8-1.3,2-2.3,3.5-2.6c1-0.2,2-0.1,2.9,0.3
	c1.1,0.6,1.6,1.8,1.3,2.9c-0.1,0.3-0.2,0.6-0.4,0.8c-0.2-0.7-0.7-1.2-1.4-1.4c-0.8-0.3-1.7-0.2-2.5,0.1c-1.1,0.5-1.9,1.3-2.6,2.3
	c-1.3,2-2.2,4.3-2.6,6.8C30.7,32.1,30.6,32.3,30.5,32.5z"/>
<path class="st1" d="M14.1,38.2c0.7-0.5,1.5-0.9,2.3-1.2c2.8-1.1,5.9-1.6,8.9-1.4c1.2,0,2.4,0.2,3.5,0.5c0.4,0.1,0.8,0.3,1.2,0.5
	c0.5,0.3,0.7,0.7,0.5,1.2c-0.1,0.4-0.5,0.5-1.1,0.4c-1.4-0.2-2.8-0.4-4.2-0.5c-2.2-0.1-4.4-0.1-6.6,0.1c-1.4,0.1-2.8,0.2-4.2,0.4
	C14.3,38.2,14.3,38.2,14.1,38.2z"/>
<path class="st1" d="M14.2,34.7c1-0.7,2.1-1.2,3.2-1.6c3.6-1.2,7.5-1.4,11.3-0.5c0.4,0.1,0.7,0.2,1.1,0.4c0.2,0.1,0.4,0.2,0.6,0.4
	c0.3,0.3,0.3,0.7,0.1,1c-0.2,0.3-0.5,0.4-0.8,0.3c-1.1-0.2-2.1-0.3-3.2-0.5c-1.9-0.2-3.8-0.2-5.7-0.1C18.5,34.3,16.4,34.5,14.2,34.7
	z"/>
<path class="st1" d="M14.2,4.5c2-0.2,4,0.4,5.5,1.7c1.9,1.8,3.1,4.2,3.4,6.9c0.1,0.5,0.1,0.9,0,1.4c-0.1,0.4-0.2,0.6-0.6,0.7
	c-0.4,0-0.6-0.3-0.7-0.6c-0.3-1.3-0.8-2.5-1.4-3.7c-1.1-2.5-3-4.5-5.3-5.9C14.8,4.8,14.5,4.7,14.2,4.5z"/>
<path class="st1" d="M24.1,11.6c-0.9-3.3,1-6.8,4.3-7.8c1-0.3,2-0.3,3-0.1C27.7,5.1,25.5,7.9,24.1,11.6z"/>
<path class="st0" d="M127.8,25c-1.1,0-2-0.9-2-1.9s0.9-2,1.9-2c1.1,0,2,0.9,2,1.9c0,0,0,0,0,0C129.7,24.1,128.8,25,127.8,25z
	 M127.7,24.6c0.9,0,1.6-0.7,1.6-1.6c0-0.9-0.7-1.6-1.6-1.6c-0.9,0-1.6,0.7-1.6,1.6C126.1,23.9,126.8,24.6,127.7,24.6
	C127.7,24.6,127.7,24.6,127.7,24.6z"/>
<path class="st1" d="M8.2,12.1C8.2,12.1,8.2,12.1,8.2,12.1C8.2,12.1,8.2,12.1,8.2,12.1L8.2,12.1L8.2,12.1z"/>
<path class="st0" d="M128.6,24c-0.3,0.1-0.5,0-0.6-0.3c0-0.1-0.1-0.2-0.1-0.3c-0.1-0.2-0.2-0.2-0.4-0.2c-0.2,0-0.2,0.2-0.2,0.3
	c0,0.1,0,0.2,0,0.3c0,0.1,0,0.2-0.2,0.2c-0.2,0-0.3,0-0.3-0.2c0-0.5,0-1.1,0-1.6c0-0.2,0.1-0.2,0.2-0.2c0.3,0,0.7,0,1,0
	c0.3,0,0.6,0.3,0.5,0.6c0,0.1-0.1,0.3-0.1,0.4c-0.3,0.2-0.2,0.4-0.1,0.6C128.5,23.7,128.6,23.9,128.6,24z M127.8,22.3
	c-0.2,0-0.4-0.1-0.4,0.3c0,0.3,0.1,0.3,0.3,0.3c0.2,0,0.5,0,0.5-0.3C128.2,22.3,127.9,22.3,127.8,22.3L127.8,22.3z"/>
</svg>
